%
M48
M72
T01C0.0130
T02C0.0236
T03C0.0240
T04C0.0320
T05C0.0400
T06C0.0472
T07C0.1260
%
T01
X3281Y1601
X5851Y1721
X4941Y3541
X2741Y3541
X1481Y3581
X3341Y5141
X6141Y7141
X7791Y6731
X8141Y6941
X7381Y6131
X6941Y5741
X9974Y5036
X10474Y4736
X11434Y5359
X11925Y5070
X12541Y6341
X10941Y7251
X13141Y7941
X12341Y8741
X14341Y7941
X14741Y7541
X14541Y8801
X16541Y9741
X17401Y8791
X17401Y8391
X17501Y8021
X19651Y7601
X21341Y7741
X18911Y5991
X17711Y4851
X13941Y4541
X13541Y3541
X6453Y8199
X4999Y8199
X4941Y9741
X3247Y11447
T02
X8074Y7936
X9674Y8176
X10192Y6634
X8702Y6636
T03
X7239Y3756
X7239Y1756
T04
X16039Y1739
X16039Y2739
X16039Y739
T05
X11936Y1868
X10936Y1868
X9936Y1868
X9936Y2868
X10936Y2868
X11936Y2868
T06
X18494Y3139
X18494Y2139
X18494Y1139
X20341Y10241
X20341Y11241
X2569Y10485
X1569Y10485
X1569Y9102
X1569Y8102
X1569Y7102
X1569Y6102
T07
X3551Y6794
X6172Y11794
X15362Y11808
X21261Y1368
M30
