%
M48
M72
T01C0.0130
T02C0.0400
T03C0.0472
T04C0.1300
%
T01
X8500Y4742
X8490Y6582
X10990Y7892
X10960Y8402
X12560Y8402
X13060Y8902
X14560Y9502
X16030Y9932
X15460Y10502
X16460Y10702
X13360Y11802
X9460Y10202
X10970Y9412
X14350Y7872
X14760Y7402
X15416Y7502
X16616Y7802
X17816Y7802
X18216Y7402
X16726Y6712
X18246Y6502
X20976Y7882
X20876Y8252
X20876Y8652
X20016Y9602
X18016Y8662
X14760Y6702
X12760Y5502
X15080Y3762
X15996Y3408
X16906Y1888
X14360Y1202
X21186Y4712
X22386Y5852
X23126Y7462
X24816Y7602
T02
X6931Y7391
X5813Y7935
X6931Y8482
X5813Y6844
X6931Y6301
X5813Y5757
X6931Y5210
X5813Y4667
X6931Y4120
T03
X23816Y10102
X23816Y11102
T04
X6372Y1380
X6372Y11222
M30
