G75*
G70*
%OFA0B0*%
%FSLAX24Y24*%
%IPPOS*%
%LPD*%
%AMOC8*
5,1,8,0,0,1.08239X$1,22.5*
%
%ADD10R,0.0330X0.1480*%
%ADD11R,0.1480X0.0330*%
%ADD12R,0.0789X0.0474*%
%ADD13R,0.0474X0.0789*%
%ADD14R,0.0356X0.0415*%
%ADD15R,0.0513X0.0474*%
%ADD16R,0.0474X0.0513*%
%ADD17R,0.0946X0.0395*%
%ADD18R,0.0218X0.0671*%
%ADD19R,0.0710X0.0710*%
%ADD20C,0.0789*%
%ADD21R,0.0552X0.0316*%
%ADD22R,0.0513X0.0552*%
%ADD23R,0.0552X0.0513*%
%ADD24R,0.0820X0.0820*%
%ADD25C,0.0820*%
%ADD26C,0.2080*%
%ADD27R,0.0631X0.0474*%
%ADD28C,0.0350*%
D10*
X020466Y005652D03*
X020866Y005652D03*
X020866Y009602D03*
X020466Y009602D03*
D11*
X019316Y009052D03*
X019316Y008652D03*
X019316Y008252D03*
X019316Y007852D03*
X019316Y007452D03*
X019316Y007052D03*
X019316Y006652D03*
X019316Y006252D03*
X022016Y006252D03*
X022016Y006652D03*
X022016Y007052D03*
X022016Y007452D03*
X022016Y007852D03*
X022016Y008252D03*
X022016Y008652D03*
X022016Y009052D03*
D12*
X022492Y009892D03*
X022492Y010600D03*
D13*
X021794Y011392D03*
X021086Y011392D03*
D14*
X018156Y009712D03*
X018156Y009082D03*
D15*
X017351Y008382D03*
X016681Y008382D03*
X016604Y009710D03*
X017273Y009710D03*
X023456Y006436D03*
X023456Y005767D03*
X017916Y005636D03*
X017916Y004967D03*
D16*
X022581Y005002D03*
X023251Y005002D03*
X024481Y006902D03*
X025151Y006902D03*
X024316Y008267D03*
X024316Y008936D03*
X016943Y011413D03*
X016273Y011413D03*
X016398Y001294D03*
X017067Y001294D03*
D17*
X018159Y000961D03*
X018159Y001827D03*
D18*
X020251Y001824D03*
X020506Y001824D03*
X020762Y001824D03*
X021018Y001824D03*
X021274Y001824D03*
D19*
X019235Y000820D03*
X022286Y000776D03*
D20*
X023462Y010102D02*
X024170Y010102D01*
X024170Y011102D02*
X023462Y011102D01*
D21*
X013773Y009913D03*
X013773Y009413D03*
X013773Y008913D03*
X013773Y008413D03*
X013773Y007913D03*
X013773Y007413D03*
X013773Y006913D03*
X013773Y006413D03*
X011569Y006413D03*
X011569Y006913D03*
X011569Y007413D03*
X011569Y007913D03*
X011569Y008413D03*
X011569Y008913D03*
X011569Y009413D03*
X011569Y009913D03*
D22*
X012171Y010706D03*
X013234Y010706D03*
X010432Y007411D03*
X009369Y007411D03*
D23*
X010240Y008854D03*
X010240Y009917D03*
D24*
X006931Y004120D03*
D25*
X005813Y004667D03*
X006931Y005210D03*
X005813Y005757D03*
X006931Y006301D03*
X005813Y006844D03*
X006931Y007391D03*
X005813Y007935D03*
X006931Y008482D03*
D26*
X006372Y001380D03*
X006372Y011222D03*
D27*
X014167Y011039D03*
X015112Y011413D03*
X014167Y011787D03*
D28*
X013360Y011802D03*
X015460Y010502D03*
X016030Y009932D03*
X014560Y009502D03*
X013060Y008902D03*
X012560Y008402D03*
X010960Y008402D03*
X010990Y007892D03*
X008490Y006582D03*
X008500Y004742D03*
X012760Y005502D03*
X014760Y006702D03*
X014760Y007402D03*
X015416Y007502D03*
X014350Y007872D03*
X016616Y007802D03*
X017816Y007802D03*
X018216Y007402D03*
X016726Y006712D03*
X018246Y006502D03*
X020976Y007882D03*
X020876Y008252D03*
X020876Y008652D03*
X020016Y009602D03*
X018016Y008662D03*
X016460Y010702D03*
X010970Y009412D03*
X009460Y010202D03*
X021186Y004712D03*
X022386Y005852D03*
X023126Y007462D03*
X024816Y007602D03*
X015996Y003408D03*
X015080Y003762D03*
X016906Y001888D03*
X014360Y001202D03*
M02*
