G75*
G70*
%OFA0B0*%
%FSLAX24Y24*%
%IPPOS*%
%LPD*%
%AMOC8*
5,1,8,0,0,1.08239X$1,22.5*
%
%ADD10R,0.0433X0.0394*%
%ADD11R,0.0394X0.0433*%
%ADD12R,0.0866X0.0315*%
%ADD13R,0.0480X0.0880*%
%ADD14R,0.1417X0.0866*%
%ADD15C,0.0709*%
%ADD16R,0.0472X0.0433*%
%ADD17R,0.0433X0.0472*%
%ADD18R,0.0740X0.0740*%
%ADD19C,0.0740*%
%ADD20C,0.2000*%
%ADD21C,0.0160*%
%ADD22C,0.0270*%
%ADD23C,0.0120*%
%ADD24C,0.0080*%
%ADD25C,0.0100*%
%ADD26C,0.0060*%
D10*
X016060Y006323D03*
X016060Y006992D03*
X016641Y009002D03*
X017311Y009002D03*
X021756Y005696D03*
X021756Y005027D03*
D11*
X023641Y007302D03*
X024311Y007302D03*
X017316Y007416D03*
X017316Y006747D03*
X013987Y004726D03*
X013317Y004726D03*
X012293Y004726D03*
X011624Y004726D03*
X015094Y001281D03*
X015763Y001281D03*
D12*
X024314Y008142D03*
X024314Y009008D03*
D13*
X016906Y002588D03*
X015996Y002588D03*
X015086Y002588D03*
D14*
X015996Y005028D03*
D15*
X023462Y010102D02*
X024170Y010102D01*
X024170Y011102D02*
X023462Y011102D01*
D16*
X010205Y008589D03*
X010205Y007526D03*
D17*
X010366Y009411D03*
X009303Y009411D03*
D18*
X006931Y004120D03*
D19*
X005813Y004667D03*
X006931Y005210D03*
X005813Y005757D03*
X006931Y006301D03*
X005813Y006844D03*
X006931Y007391D03*
X005813Y007935D03*
X006931Y008482D03*
D20*
X006372Y001380D03*
X006372Y011222D03*
D21*
X015996Y005028D02*
X015996Y003408D01*
X015996Y002588D01*
X015086Y002588D02*
X015086Y003274D01*
X015080Y003280D01*
X015080Y003762D01*
X015094Y001281D02*
X014823Y001281D01*
X014744Y001202D01*
X014360Y001202D01*
X024314Y009008D02*
X024314Y009603D01*
X023816Y010102D01*
D22*
X020876Y008652D03*
X020876Y008252D03*
X020976Y007882D03*
X023126Y007462D03*
X024816Y007602D03*
X022386Y005852D03*
X021186Y004712D03*
X018246Y006502D03*
X016726Y006712D03*
X015416Y007502D03*
X014760Y007402D03*
X014350Y007872D03*
X012560Y008402D03*
X013060Y008902D03*
X014560Y009502D03*
X016030Y009932D03*
X015460Y010502D03*
X016460Y010702D03*
X013360Y011802D03*
X009460Y010202D03*
X010970Y009412D03*
X010960Y008402D03*
X010990Y007892D03*
X008490Y006582D03*
X008500Y004742D03*
X012760Y005502D03*
X014760Y006702D03*
X016616Y007802D03*
X017816Y007802D03*
X018216Y007402D03*
X018016Y008662D03*
X020016Y009602D03*
X015080Y003762D03*
X015996Y003408D03*
X016906Y001888D03*
X014360Y001202D03*
D23*
X015419Y006274D02*
X015416Y007502D01*
X016616Y007802D02*
X016726Y006712D01*
X016616Y007802D02*
X016641Y007827D01*
X016641Y009002D01*
X020016Y009602D02*
X021016Y009602D01*
X021216Y009402D01*
X021216Y008122D01*
X020976Y007882D01*
X024314Y008103D02*
X024816Y007602D01*
X024611Y007602D01*
X024311Y007302D01*
X024314Y008103D02*
X024314Y008142D01*
D24*
X024306Y007885D02*
X023839Y007885D01*
X023781Y007943D01*
X023781Y008341D01*
X023839Y008400D01*
X024789Y008400D01*
X024847Y008341D01*
X024847Y007943D01*
X024789Y007885D01*
X024759Y007885D01*
X024807Y007837D01*
X024913Y007837D01*
X025051Y007699D01*
X025051Y007504D01*
X024913Y007367D01*
X024719Y007367D01*
X024660Y007425D01*
X024607Y007372D01*
X024607Y007044D01*
X024549Y006985D01*
X024072Y006985D01*
X024014Y007044D01*
X024014Y007560D01*
X024072Y007618D01*
X024401Y007618D01*
X024487Y007704D01*
X024306Y007885D01*
X024371Y007820D02*
X021211Y007820D01*
X021211Y007784D02*
X021211Y007890D01*
X021376Y008055D01*
X021376Y008188D01*
X021376Y009468D01*
X021282Y009562D01*
X021082Y009762D01*
X020950Y009762D01*
X020188Y009762D01*
X020113Y009837D01*
X019919Y009837D01*
X019781Y009699D01*
X019781Y009504D01*
X019919Y009367D01*
X020113Y009367D01*
X020188Y009442D01*
X020950Y009442D01*
X021056Y009335D01*
X021056Y008804D01*
X020973Y008887D01*
X020779Y008887D01*
X020694Y008802D01*
X020272Y008802D01*
X017968Y010811D01*
X017928Y010852D01*
X017922Y010852D01*
X017918Y010855D01*
X017861Y010852D01*
X017047Y010852D01*
X017002Y011806D01*
X017006Y012082D01*
X025306Y012082D01*
X025269Y003357D01*
X017402Y003357D01*
X017268Y006172D01*
X017878Y006172D01*
X017878Y006172D01*
X017944Y006172D01*
X018002Y006172D01*
X018061Y006231D01*
X018090Y006259D01*
X018090Y006259D01*
X018123Y006292D01*
X018149Y006267D01*
X018343Y006267D01*
X018481Y006404D01*
X018481Y006599D01*
X018343Y006737D01*
X018149Y006737D01*
X018064Y006652D01*
X018058Y006652D01*
X017970Y006564D01*
X017878Y006472D01*
X017596Y006472D01*
X017613Y006489D01*
X017613Y006602D01*
X017798Y006602D01*
X017886Y006689D01*
X018366Y007169D01*
X018366Y007219D01*
X018451Y007304D01*
X018451Y007499D01*
X018313Y007637D01*
X018119Y007637D01*
X017981Y007499D01*
X017981Y007304D01*
X018029Y007256D01*
X017674Y006902D01*
X017613Y006902D01*
X017613Y007005D01*
X017554Y007063D01*
X017226Y007063D01*
X017225Y007100D01*
X017554Y007100D01*
X017613Y007158D01*
X017613Y007501D01*
X017698Y007587D01*
X017719Y007567D01*
X017913Y007567D01*
X018051Y007704D01*
X018051Y007899D01*
X017913Y008037D01*
X017719Y008037D01*
X017581Y007899D01*
X017581Y007893D01*
X017420Y007733D01*
X017195Y007733D01*
X017149Y008705D01*
X017569Y008705D01*
X017627Y008763D01*
X017627Y008838D01*
X017781Y008684D01*
X017150Y008684D01*
X017153Y008606D02*
X017781Y008606D01*
X017781Y008564D02*
X017781Y008684D01*
X017703Y008763D02*
X017627Y008763D01*
X017970Y008920D02*
X019275Y008920D01*
X019197Y008998D02*
X017891Y008998D01*
X017813Y009077D02*
X019118Y009077D01*
X019066Y009129D02*
X020016Y008179D01*
X020104Y008092D01*
X020704Y008092D01*
X020779Y008017D01*
X020741Y007979D01*
X020741Y007784D01*
X020879Y007647D01*
X021073Y007647D01*
X021211Y007784D01*
X021168Y007742D02*
X024449Y007742D01*
X024446Y007663D02*
X023257Y007663D01*
X023223Y007697D02*
X023029Y007697D01*
X022891Y007559D01*
X022891Y007364D01*
X023029Y007227D01*
X023149Y007227D01*
X023224Y007152D01*
X023344Y007152D01*
X023344Y007044D01*
X023403Y006985D01*
X023880Y006985D01*
X023938Y007044D01*
X023938Y007560D01*
X023880Y007618D01*
X023403Y007618D01*
X023352Y007567D01*
X023223Y007697D01*
X023335Y007585D02*
X023370Y007585D01*
X022995Y007663D02*
X021090Y007663D01*
X020862Y007663D02*
X018010Y007663D01*
X018051Y007742D02*
X020783Y007742D01*
X020741Y007820D02*
X018051Y007820D01*
X018051Y007899D02*
X020741Y007899D01*
X020741Y007977D02*
X017972Y007977D01*
X017659Y007977D02*
X017183Y007977D01*
X017187Y007899D02*
X017581Y007899D01*
X017508Y007820D02*
X017190Y007820D01*
X017194Y007742D02*
X017429Y007742D01*
X017696Y007585D02*
X017700Y007585D01*
X017618Y007506D02*
X017988Y007506D01*
X017981Y007428D02*
X017613Y007428D01*
X017613Y007349D02*
X017981Y007349D01*
X018015Y007270D02*
X017613Y007270D01*
X017613Y007192D02*
X017964Y007192D01*
X017886Y007113D02*
X017568Y007113D01*
X017583Y007035D02*
X017807Y007035D01*
X017729Y006956D02*
X017613Y006956D01*
X017996Y006799D02*
X025284Y006799D01*
X025284Y006721D02*
X018359Y006721D01*
X018438Y006642D02*
X025283Y006642D01*
X025283Y006564D02*
X018481Y006564D01*
X018481Y006485D02*
X025283Y006485D01*
X025282Y006406D02*
X018481Y006406D01*
X018405Y006328D02*
X025282Y006328D01*
X025282Y006249D02*
X018080Y006249D01*
X018002Y006172D02*
X018002Y006172D01*
X018002Y006172D01*
X017891Y006485D02*
X017609Y006485D01*
X017613Y006564D02*
X017970Y006564D01*
X018048Y006642D02*
X017839Y006642D01*
X017917Y006721D02*
X018133Y006721D01*
X018074Y006878D02*
X025284Y006878D01*
X025284Y006956D02*
X018153Y006956D01*
X018231Y007035D02*
X023353Y007035D01*
X023344Y007113D02*
X018310Y007113D01*
X018366Y007192D02*
X023183Y007192D01*
X022985Y007270D02*
X018417Y007270D01*
X018451Y007349D02*
X022906Y007349D01*
X022891Y007428D02*
X018451Y007428D01*
X018444Y007506D02*
X022891Y007506D01*
X022917Y007585D02*
X018365Y007585D01*
X018067Y007585D02*
X017931Y007585D01*
X017179Y008056D02*
X020739Y008056D01*
X020779Y008017D02*
X020779Y008017D01*
X021219Y007899D02*
X023825Y007899D01*
X023781Y007977D02*
X021298Y007977D01*
X021376Y008056D02*
X023781Y008056D01*
X023781Y008134D02*
X021376Y008134D01*
X021376Y008213D02*
X023781Y008213D01*
X023781Y008292D02*
X021376Y008292D01*
X021376Y008370D02*
X023810Y008370D01*
X023862Y008711D02*
X024275Y008711D01*
X024275Y008969D01*
X024353Y008969D01*
X024353Y008711D01*
X024766Y008711D01*
X024801Y008720D01*
X024833Y008739D01*
X024859Y008765D01*
X024878Y008797D01*
X024887Y008832D01*
X024887Y008970D01*
X024353Y008970D01*
X024353Y009047D01*
X024887Y009047D01*
X024887Y009184D01*
X024878Y009220D01*
X024859Y009252D01*
X024833Y009278D01*
X024801Y009296D01*
X024766Y009306D01*
X024353Y009306D01*
X024353Y009047D01*
X024275Y009047D01*
X024275Y008970D01*
X023741Y008970D01*
X023741Y008832D01*
X023750Y008797D01*
X023769Y008765D01*
X023795Y008739D01*
X023827Y008720D01*
X023862Y008711D01*
X023771Y008763D02*
X021376Y008763D01*
X021376Y008841D02*
X023741Y008841D01*
X023741Y008920D02*
X021376Y008920D01*
X021376Y008998D02*
X024275Y008998D01*
X024275Y009047D02*
X023741Y009047D01*
X023741Y009184D01*
X023750Y009220D01*
X023769Y009252D01*
X023795Y009278D01*
X023827Y009296D01*
X023862Y009306D01*
X024275Y009306D01*
X024275Y009047D01*
X024275Y009077D02*
X024353Y009077D01*
X024353Y009156D02*
X024275Y009156D01*
X024275Y009234D02*
X024353Y009234D01*
X024353Y008998D02*
X025293Y008998D01*
X025293Y008920D02*
X024887Y008920D01*
X024887Y008841D02*
X025292Y008841D01*
X025292Y008763D02*
X024857Y008763D01*
X025292Y008684D02*
X021376Y008684D01*
X021376Y008606D02*
X025291Y008606D01*
X025291Y008527D02*
X021376Y008527D01*
X021376Y008449D02*
X025291Y008449D01*
X025290Y008370D02*
X024818Y008370D01*
X024847Y008292D02*
X025290Y008292D01*
X025290Y008213D02*
X024847Y008213D01*
X024847Y008134D02*
X025289Y008134D01*
X025289Y008056D02*
X024847Y008056D01*
X024847Y007977D02*
X025289Y007977D01*
X025288Y007899D02*
X024803Y007899D01*
X024929Y007820D02*
X025288Y007820D01*
X025288Y007742D02*
X025008Y007742D01*
X025051Y007663D02*
X025287Y007663D01*
X025287Y007585D02*
X025051Y007585D01*
X025051Y007506D02*
X025287Y007506D01*
X025286Y007428D02*
X024974Y007428D01*
X025286Y007349D02*
X024607Y007349D01*
X024607Y007270D02*
X025286Y007270D01*
X025285Y007192D02*
X024607Y007192D01*
X024607Y007113D02*
X025285Y007113D01*
X025285Y007035D02*
X024599Y007035D01*
X024022Y007035D02*
X023929Y007035D01*
X023938Y007113D02*
X024014Y007113D01*
X024014Y007192D02*
X023938Y007192D01*
X023938Y007270D02*
X024014Y007270D01*
X024014Y007349D02*
X023938Y007349D01*
X023938Y007428D02*
X024014Y007428D01*
X024014Y007506D02*
X023938Y007506D01*
X023913Y007585D02*
X024039Y007585D01*
X024275Y008763D02*
X024353Y008763D01*
X024353Y008841D02*
X024275Y008841D01*
X024275Y008920D02*
X024353Y008920D01*
X024887Y009077D02*
X025293Y009077D01*
X025294Y009156D02*
X024887Y009156D01*
X024869Y009234D02*
X025294Y009234D01*
X025294Y009313D02*
X021376Y009313D01*
X021376Y009391D02*
X025295Y009391D01*
X025295Y009470D02*
X021374Y009470D01*
X021295Y009548D02*
X025295Y009548D01*
X025296Y009627D02*
X024309Y009627D01*
X024286Y009619D02*
X024360Y009643D01*
X024429Y009679D01*
X024492Y009725D01*
X024547Y009780D01*
X024593Y009842D01*
X024628Y009912D01*
X024652Y009986D01*
X024664Y010062D01*
X023856Y010062D01*
X023856Y010141D01*
X024664Y010141D01*
X024652Y010217D01*
X024628Y010291D01*
X024593Y010361D01*
X024547Y010424D01*
X024492Y010479D01*
X024429Y010524D01*
X024360Y010560D01*
X024286Y010584D01*
X024209Y010596D01*
X023856Y010596D01*
X023856Y010142D01*
X023776Y010142D01*
X023776Y010596D01*
X023423Y010596D01*
X023346Y010584D01*
X023272Y010560D01*
X023202Y010524D01*
X023140Y010479D01*
X023085Y010424D01*
X023039Y010361D01*
X023003Y010291D01*
X022979Y010217D01*
X022967Y010141D01*
X023776Y010141D01*
X023776Y010062D01*
X022967Y010062D01*
X022979Y009986D01*
X023003Y009912D01*
X023039Y009842D01*
X023085Y009780D01*
X023140Y009725D01*
X023202Y009679D01*
X023272Y009643D01*
X023346Y009619D01*
X023423Y009607D01*
X023776Y009607D01*
X023776Y010061D01*
X023856Y010061D01*
X023856Y009607D01*
X024209Y009607D01*
X024286Y009619D01*
X024466Y009705D02*
X025296Y009705D01*
X025296Y009784D02*
X024550Y009784D01*
X024603Y009862D02*
X025297Y009862D01*
X025297Y009941D02*
X024638Y009941D01*
X024658Y010019D02*
X025297Y010019D01*
X025298Y010098D02*
X023856Y010098D01*
X023856Y010019D02*
X023776Y010019D01*
X023776Y009941D02*
X023856Y009941D01*
X023856Y009862D02*
X023776Y009862D01*
X023776Y009784D02*
X023856Y009784D01*
X023856Y009705D02*
X023776Y009705D01*
X023776Y009627D02*
X023856Y009627D01*
X023323Y009627D02*
X021217Y009627D01*
X021138Y009705D02*
X023166Y009705D01*
X023081Y009784D02*
X020166Y009784D01*
X019866Y009784D02*
X019146Y009784D01*
X019056Y009862D02*
X023029Y009862D01*
X022994Y009941D02*
X018966Y009941D01*
X018876Y010019D02*
X022974Y010019D01*
X022973Y010177D02*
X018696Y010177D01*
X018606Y010255D02*
X022992Y010255D01*
X023025Y010334D02*
X018516Y010334D01*
X018426Y010412D02*
X023076Y010412D01*
X023156Y010491D02*
X018336Y010491D01*
X018246Y010569D02*
X023301Y010569D01*
X023370Y010648D02*
X018156Y010648D01*
X018066Y010726D02*
X023194Y010726D01*
X023204Y010716D02*
X023371Y010647D01*
X024261Y010647D01*
X024428Y010716D01*
X024555Y010844D01*
X024625Y011011D01*
X024625Y011192D01*
X024555Y011359D01*
X024428Y011487D01*
X024261Y011556D01*
X023371Y011556D01*
X023204Y011487D01*
X023076Y011359D01*
X023007Y011192D01*
X023007Y011011D01*
X023076Y010844D01*
X023204Y010716D01*
X023116Y010805D02*
X017976Y010805D01*
X017045Y010883D02*
X023060Y010883D01*
X023028Y010962D02*
X017042Y010962D01*
X017038Y011041D02*
X023007Y011041D01*
X023007Y011119D02*
X017034Y011119D01*
X017031Y011198D02*
X023010Y011198D01*
X023042Y011276D02*
X017027Y011276D01*
X017023Y011355D02*
X023075Y011355D01*
X023151Y011433D02*
X017019Y011433D01*
X017016Y011512D02*
X023265Y011512D01*
X024367Y011512D02*
X025304Y011512D01*
X025304Y011590D02*
X017012Y011590D01*
X017008Y011669D02*
X025304Y011669D01*
X025305Y011747D02*
X017005Y011747D01*
X017002Y011826D02*
X025305Y011826D01*
X025305Y011905D02*
X017003Y011905D01*
X017004Y011983D02*
X025306Y011983D01*
X025306Y012062D02*
X017006Y012062D01*
X018786Y010098D02*
X023776Y010098D01*
X023776Y010177D02*
X023856Y010177D01*
X023856Y010255D02*
X023776Y010255D01*
X023776Y010334D02*
X023856Y010334D01*
X023856Y010412D02*
X023776Y010412D01*
X023776Y010491D02*
X023856Y010491D01*
X023856Y010569D02*
X023776Y010569D01*
X024262Y010648D02*
X025300Y010648D01*
X025300Y010726D02*
X024438Y010726D01*
X024516Y010805D02*
X025301Y010805D01*
X025301Y010883D02*
X024572Y010883D01*
X024604Y010962D02*
X025301Y010962D01*
X025302Y011041D02*
X024625Y011041D01*
X024625Y011119D02*
X025302Y011119D01*
X025302Y011198D02*
X024622Y011198D01*
X024590Y011276D02*
X025303Y011276D01*
X025303Y011355D02*
X024557Y011355D01*
X024481Y011433D02*
X025303Y011433D01*
X025300Y010569D02*
X024330Y010569D01*
X024476Y010491D02*
X025299Y010491D01*
X025299Y010412D02*
X024556Y010412D01*
X024607Y010334D02*
X025299Y010334D01*
X025298Y010255D02*
X024640Y010255D01*
X024659Y010177D02*
X025298Y010177D01*
X023759Y009234D02*
X021376Y009234D01*
X021376Y009156D02*
X023741Y009156D01*
X023741Y009077D02*
X021376Y009077D01*
X021056Y009077D02*
X019956Y009077D01*
X019866Y009156D02*
X021056Y009156D01*
X021056Y009234D02*
X019776Y009234D01*
X019686Y009313D02*
X021056Y009313D01*
X021000Y009391D02*
X020138Y009391D01*
X019894Y009391D02*
X019596Y009391D01*
X019506Y009470D02*
X019815Y009470D01*
X019781Y009548D02*
X019416Y009548D01*
X019326Y009627D02*
X019781Y009627D01*
X019787Y009705D02*
X019236Y009705D01*
X018964Y009242D02*
X019066Y009139D01*
X019066Y009129D01*
X019050Y009156D02*
X017627Y009156D01*
X017627Y009152D02*
X017627Y009240D01*
X017625Y009242D01*
X018964Y009242D01*
X018971Y009234D02*
X017627Y009234D01*
X017627Y009152D02*
X017738Y009152D01*
X017993Y008897D01*
X018113Y008897D01*
X018251Y008759D01*
X018251Y008564D01*
X018113Y008427D01*
X017919Y008427D01*
X017781Y008564D01*
X017818Y008527D02*
X017157Y008527D01*
X017161Y008449D02*
X017896Y008449D01*
X018135Y008449D02*
X019747Y008449D01*
X019668Y008527D02*
X018214Y008527D01*
X018251Y008606D02*
X019590Y008606D01*
X019511Y008684D02*
X018251Y008684D01*
X018247Y008763D02*
X019433Y008763D01*
X019354Y008841D02*
X018168Y008841D01*
X017164Y008370D02*
X019825Y008370D01*
X019904Y008292D02*
X017168Y008292D01*
X017172Y008213D02*
X019982Y008213D01*
X020061Y008134D02*
X017176Y008134D01*
X020046Y008998D02*
X021056Y008998D01*
X021056Y008920D02*
X020136Y008920D01*
X020226Y008841D02*
X020733Y008841D01*
X021018Y008841D02*
X021056Y008841D01*
X017269Y006171D02*
X025281Y006171D01*
X025281Y006092D02*
X017272Y006092D01*
X017276Y006014D02*
X022216Y006014D01*
X022151Y005949D02*
X022151Y005846D01*
X022072Y005846D01*
X022072Y005934D01*
X022014Y005993D01*
X021498Y005993D01*
X021439Y005934D01*
X021439Y005458D01*
X021498Y005399D01*
X022014Y005399D01*
X022072Y005458D01*
X022072Y005546D01*
X022168Y005546D01*
X022293Y005546D01*
X022363Y005617D01*
X022483Y005617D01*
X022621Y005754D01*
X022621Y005949D01*
X022483Y006087D01*
X022289Y006087D01*
X022151Y005949D01*
X022151Y005935D02*
X022072Y005935D01*
X022072Y005857D02*
X022151Y005857D01*
X022488Y005621D02*
X025279Y005621D01*
X025279Y005543D02*
X022072Y005543D01*
X022072Y005464D02*
X025278Y005464D01*
X025278Y005385D02*
X017306Y005385D01*
X017309Y005307D02*
X021481Y005307D01*
X021498Y005324D02*
X021439Y005265D01*
X021439Y005177D01*
X021209Y004947D01*
X021089Y004947D01*
X020951Y004809D01*
X020951Y004614D01*
X021089Y004477D01*
X021283Y004477D01*
X021421Y004614D01*
X021421Y004734D01*
X021457Y004771D01*
X021498Y004730D01*
X022014Y004730D01*
X022072Y004789D01*
X022072Y005265D01*
X022014Y005324D01*
X021498Y005324D01*
X021439Y005228D02*
X017313Y005228D01*
X017317Y005150D02*
X021412Y005150D01*
X021439Y005177D02*
X021439Y005177D01*
X021333Y005071D02*
X017321Y005071D01*
X017324Y004993D02*
X021255Y004993D01*
X021056Y004914D02*
X017328Y004914D01*
X017332Y004836D02*
X020978Y004836D01*
X020951Y004757D02*
X017335Y004757D01*
X017339Y004679D02*
X020951Y004679D01*
X020965Y004600D02*
X017343Y004600D01*
X017347Y004521D02*
X021044Y004521D01*
X021328Y004521D02*
X025274Y004521D01*
X025274Y004443D02*
X017350Y004443D01*
X017354Y004364D02*
X025274Y004364D01*
X025273Y004286D02*
X017358Y004286D01*
X017361Y004207D02*
X025273Y004207D01*
X025273Y004129D02*
X017365Y004129D01*
X017369Y004050D02*
X025272Y004050D01*
X025272Y003972D02*
X017373Y003972D01*
X017376Y003893D02*
X025272Y003893D01*
X025271Y003815D02*
X017380Y003815D01*
X017384Y003736D02*
X025271Y003736D01*
X025271Y003657D02*
X017388Y003657D01*
X017391Y003579D02*
X025270Y003579D01*
X025270Y003500D02*
X017395Y003500D01*
X017399Y003422D02*
X025270Y003422D01*
X025275Y004600D02*
X021407Y004600D01*
X021421Y004679D02*
X025275Y004679D01*
X025275Y004757D02*
X022041Y004757D01*
X022072Y004836D02*
X025276Y004836D01*
X025276Y004914D02*
X022072Y004914D01*
X022072Y004993D02*
X025276Y004993D01*
X025277Y005071D02*
X022072Y005071D01*
X022072Y005150D02*
X025277Y005150D01*
X025277Y005228D02*
X022072Y005228D01*
X022031Y005307D02*
X025278Y005307D01*
X025279Y005700D02*
X022566Y005700D01*
X022621Y005778D02*
X025280Y005778D01*
X025280Y005857D02*
X022621Y005857D01*
X022621Y005935D02*
X025280Y005935D01*
X025281Y006014D02*
X022556Y006014D01*
X021440Y005935D02*
X017280Y005935D01*
X017283Y005857D02*
X021439Y005857D01*
X021439Y005778D02*
X017287Y005778D01*
X017291Y005700D02*
X021439Y005700D01*
X021439Y005621D02*
X017295Y005621D01*
X017298Y005543D02*
X021439Y005543D01*
X021439Y005464D02*
X017302Y005464D01*
X021444Y004757D02*
X021471Y004757D01*
D25*
X021501Y005027D02*
X021186Y004712D01*
X021501Y005027D02*
X021756Y005027D01*
X021756Y005696D02*
X022231Y005696D01*
X022386Y005852D01*
X023286Y007302D02*
X023126Y007462D01*
X023286Y007302D02*
X023641Y007302D01*
X020876Y008252D02*
X020866Y008242D01*
X020166Y008242D01*
X019216Y009192D01*
X019216Y009202D01*
X019026Y009392D01*
X016346Y009392D01*
X016273Y009319D01*
X017311Y009002D02*
X017676Y009002D01*
X018016Y008662D01*
X017816Y007802D02*
X017701Y007802D01*
X017316Y007416D01*
X017736Y006752D02*
X018216Y007232D01*
X018216Y007402D01*
X017736Y006752D02*
X017321Y006752D01*
X017316Y006747D01*
X017940Y006322D02*
X018120Y006502D01*
X018246Y006502D01*
X017940Y006322D02*
X016060Y006323D01*
X015419Y006274D02*
X015519Y005506D01*
X015996Y005028D01*
X015598Y005426D01*
X013987Y004726D01*
X013317Y004726D02*
X012293Y004726D01*
X012760Y004759D01*
X012760Y005502D01*
X011759Y006301D02*
X012060Y006602D01*
X012060Y007902D01*
X012560Y008402D01*
X013060Y008102D02*
X013060Y008902D01*
X013060Y008102D02*
X012460Y007502D01*
X012460Y006702D01*
X010969Y005210D01*
X006931Y005210D01*
X008500Y004742D02*
X008516Y004726D01*
X011624Y004726D01*
X011759Y006301D02*
X006931Y006301D01*
X008490Y006582D02*
X008490Y006923D01*
X006931Y008482D01*
X007860Y009411D01*
X009303Y009411D01*
X009360Y009468D01*
X009360Y009902D01*
X009460Y010002D01*
X009460Y010202D01*
X010366Y009411D02*
X010969Y009411D01*
X010970Y009412D01*
X010205Y008589D02*
X010392Y008402D01*
X010960Y008402D01*
X010990Y007892D02*
X010624Y007526D01*
X010205Y007526D01*
X014280Y007802D02*
X014350Y007872D01*
X014280Y007802D02*
X016080Y007797D01*
X016060Y006992D01*
X014760Y006702D02*
X014760Y007402D01*
X014560Y009502D02*
X014560Y010602D01*
X013360Y011802D01*
X015460Y010502D02*
X016030Y009932D01*
X016460Y010702D02*
X017866Y010702D01*
X020216Y008652D01*
X020876Y008652D01*
X016906Y002588D02*
X016906Y001888D01*
X016299Y001281D01*
X015763Y001281D01*
D26*
X015632Y002108D02*
X015596Y002108D01*
X015596Y003708D01*
X015178Y003982D01*
X015173Y003987D01*
X015171Y003987D01*
X015016Y004088D01*
X015036Y005688D01*
X016926Y005708D01*
X016936Y004058D01*
X016396Y003708D01*
X016396Y002108D01*
X016360Y002108D01*
X016366Y002131D01*
X016366Y002558D01*
X016026Y002558D01*
X016026Y002618D01*
X015966Y002618D01*
X015966Y002558D01*
X015626Y002558D01*
X015626Y002131D01*
X015632Y002108D01*
X015626Y002134D02*
X015596Y002134D01*
X015596Y002192D02*
X015626Y002192D01*
X015626Y002251D02*
X015596Y002251D01*
X015596Y002309D02*
X015626Y002309D01*
X015626Y002368D02*
X015596Y002368D01*
X015596Y002426D02*
X015626Y002426D01*
X015626Y002485D02*
X015596Y002485D01*
X015596Y002543D02*
X015626Y002543D01*
X015596Y002602D02*
X015966Y002602D01*
X015966Y002618D02*
X015626Y002618D01*
X015626Y003045D01*
X015635Y003078D01*
X015652Y003108D01*
X015676Y003132D01*
X015706Y003149D01*
X015739Y003158D01*
X015966Y003158D01*
X015966Y002618D01*
X015966Y002660D02*
X016026Y002660D01*
X016026Y002618D02*
X016026Y003158D01*
X016253Y003158D01*
X016286Y003149D01*
X016316Y003132D01*
X016340Y003108D01*
X016357Y003078D01*
X016366Y003045D01*
X016366Y002618D01*
X016026Y002618D01*
X016026Y002602D02*
X016396Y002602D01*
X016396Y002660D02*
X016366Y002660D01*
X016366Y002719D02*
X016396Y002719D01*
X016396Y002777D02*
X016366Y002777D01*
X016366Y002836D02*
X016396Y002836D01*
X016396Y002895D02*
X016366Y002895D01*
X016366Y002953D02*
X016396Y002953D01*
X016396Y003012D02*
X016366Y003012D01*
X016359Y003070D02*
X016396Y003070D01*
X016396Y003129D02*
X016319Y003129D01*
X016396Y003187D02*
X015596Y003187D01*
X015596Y003129D02*
X015673Y003129D01*
X015633Y003070D02*
X015596Y003070D01*
X015596Y003012D02*
X015626Y003012D01*
X015626Y002953D02*
X015596Y002953D01*
X015596Y002895D02*
X015626Y002895D01*
X015626Y002836D02*
X015596Y002836D01*
X015596Y002777D02*
X015626Y002777D01*
X015626Y002719D02*
X015596Y002719D01*
X015596Y002660D02*
X015626Y002660D01*
X015966Y002719D02*
X016026Y002719D01*
X016026Y002777D02*
X015966Y002777D01*
X015966Y002836D02*
X016026Y002836D01*
X016026Y002895D02*
X015966Y002895D01*
X015966Y002953D02*
X016026Y002953D01*
X016026Y003012D02*
X015966Y003012D01*
X015966Y003070D02*
X016026Y003070D01*
X016026Y003129D02*
X015966Y003129D01*
X015596Y003246D02*
X016396Y003246D01*
X016396Y003304D02*
X015596Y003304D01*
X015596Y003363D02*
X016396Y003363D01*
X016396Y003421D02*
X015596Y003421D01*
X015596Y003480D02*
X016396Y003480D01*
X016396Y003539D02*
X015596Y003539D01*
X015596Y003597D02*
X016396Y003597D01*
X016396Y003656D02*
X015596Y003656D01*
X015587Y003714D02*
X016406Y003714D01*
X016496Y003773D02*
X015497Y003773D01*
X015408Y003831D02*
X016587Y003831D01*
X016677Y003890D02*
X015319Y003890D01*
X015229Y003948D02*
X016767Y003948D01*
X016858Y004007D02*
X015140Y004007D01*
X015050Y004065D02*
X016936Y004065D01*
X016936Y004124D02*
X015017Y004124D01*
X015017Y004183D02*
X016935Y004183D01*
X016935Y004241D02*
X015018Y004241D01*
X015019Y004300D02*
X016935Y004300D01*
X016934Y004358D02*
X015020Y004358D01*
X015020Y004417D02*
X016934Y004417D01*
X016934Y004475D02*
X016758Y004475D01*
X016755Y004474D02*
X016785Y004491D01*
X016809Y004515D01*
X016826Y004545D01*
X016835Y004578D01*
X016835Y004998D01*
X016026Y004998D01*
X016026Y004465D01*
X016722Y004465D01*
X016755Y004474D01*
X016820Y004534D02*
X016933Y004534D01*
X016933Y004592D02*
X016835Y004592D01*
X016835Y004651D02*
X016933Y004651D01*
X016932Y004709D02*
X016835Y004709D01*
X016835Y004768D02*
X016932Y004768D01*
X016932Y004826D02*
X016835Y004826D01*
X016835Y004885D02*
X016931Y004885D01*
X016931Y004944D02*
X016835Y004944D01*
X016930Y005002D02*
X016026Y005002D01*
X016026Y004998D02*
X016026Y005058D01*
X015966Y005058D01*
X015966Y004998D01*
X015158Y004998D01*
X015158Y004578D01*
X015166Y004545D01*
X015184Y004515D01*
X015208Y004491D01*
X015237Y004474D01*
X015270Y004465D01*
X015966Y004465D01*
X015966Y004998D01*
X016026Y004998D01*
X016026Y004944D02*
X015966Y004944D01*
X015966Y005002D02*
X015028Y005002D01*
X015027Y004944D02*
X015158Y004944D01*
X015158Y004885D02*
X015026Y004885D01*
X015025Y004826D02*
X015158Y004826D01*
X015158Y004768D02*
X015025Y004768D01*
X015024Y004709D02*
X015158Y004709D01*
X015158Y004651D02*
X015023Y004651D01*
X015023Y004592D02*
X015158Y004592D01*
X015173Y004534D02*
X015022Y004534D01*
X015021Y004475D02*
X015235Y004475D01*
X015966Y004475D02*
X016026Y004475D01*
X016026Y004534D02*
X015966Y004534D01*
X015966Y004592D02*
X016026Y004592D01*
X016026Y004651D02*
X015966Y004651D01*
X015966Y004709D02*
X016026Y004709D01*
X016026Y004768D02*
X015966Y004768D01*
X015966Y004826D02*
X016026Y004826D01*
X016026Y004885D02*
X015966Y004885D01*
X015966Y005058D02*
X015158Y005058D01*
X015158Y005478D01*
X015166Y005511D01*
X015184Y005541D01*
X015208Y005565D01*
X015237Y005582D01*
X015270Y005591D01*
X015966Y005591D01*
X015966Y005058D01*
X015966Y005061D02*
X016026Y005061D01*
X016026Y005058D02*
X016026Y005591D01*
X016722Y005591D01*
X016755Y005582D01*
X016785Y005565D01*
X016809Y005541D01*
X016826Y005511D01*
X016835Y005478D01*
X016835Y005058D01*
X016026Y005058D01*
X016026Y005119D02*
X015966Y005119D01*
X015966Y005178D02*
X016026Y005178D01*
X016026Y005236D02*
X015966Y005236D01*
X015966Y005295D02*
X016026Y005295D01*
X016026Y005353D02*
X015966Y005353D01*
X015966Y005412D02*
X016026Y005412D01*
X016026Y005470D02*
X015966Y005470D01*
X015966Y005529D02*
X016026Y005529D01*
X016026Y005588D02*
X015966Y005588D01*
X016621Y005705D02*
X016926Y005705D01*
X016927Y005646D02*
X015036Y005646D01*
X015035Y005588D02*
X015258Y005588D01*
X015177Y005529D02*
X015034Y005529D01*
X015033Y005470D02*
X015158Y005470D01*
X015158Y005412D02*
X015033Y005412D01*
X015032Y005353D02*
X015158Y005353D01*
X015158Y005295D02*
X015031Y005295D01*
X015031Y005236D02*
X015158Y005236D01*
X015158Y005178D02*
X015030Y005178D01*
X015029Y005119D02*
X015158Y005119D01*
X015158Y005061D02*
X015028Y005061D01*
X016735Y005588D02*
X016927Y005588D01*
X016927Y005529D02*
X016816Y005529D01*
X016835Y005470D02*
X016928Y005470D01*
X016928Y005412D02*
X016835Y005412D01*
X016835Y005353D02*
X016928Y005353D01*
X016929Y005295D02*
X016835Y005295D01*
X016835Y005236D02*
X016929Y005236D01*
X016929Y005178D02*
X016835Y005178D01*
X016835Y005119D02*
X016930Y005119D01*
X016930Y005061D02*
X016835Y005061D01*
X016396Y002543D02*
X016366Y002543D01*
X016366Y002485D02*
X016396Y002485D01*
X016396Y002426D02*
X016366Y002426D01*
X016366Y002368D02*
X016396Y002368D01*
X016396Y002309D02*
X016366Y002309D01*
X016366Y002251D02*
X016396Y002251D01*
X016396Y002192D02*
X016366Y002192D01*
X016366Y002134D02*
X016396Y002134D01*
M02*
