G75*
G70*
%OFA0B0*%
%FSLAX24Y24*%
%IPPOS*%
%LPD*%
%AMOC8*
5,1,8,0,0,1.08239X$1,22.5*
%
%ADD10R,0.0250X0.1400*%
%ADD11R,0.1400X0.0250*%
%ADD12R,0.0709X0.0394*%
%ADD13R,0.0394X0.0709*%
%ADD14R,0.0276X0.0335*%
%ADD15R,0.0433X0.0394*%
%ADD16R,0.0394X0.0433*%
%ADD17R,0.0866X0.0315*%
%ADD18R,0.0138X0.0591*%
%ADD19R,0.0630X0.0630*%
%ADD20R,0.0472X0.0236*%
%ADD21R,0.0433X0.0472*%
%ADD22R,0.0472X0.0433*%
%ADD23R,0.0551X0.0394*%
D10*
X020466Y005652D03*
X020866Y005652D03*
X020866Y009602D03*
X020466Y009602D03*
D11*
X019316Y009052D03*
X019316Y008652D03*
X019316Y008252D03*
X019316Y007852D03*
X019316Y007452D03*
X019316Y007052D03*
X019316Y006652D03*
X019316Y006252D03*
X022016Y006252D03*
X022016Y006652D03*
X022016Y007052D03*
X022016Y007452D03*
X022016Y007852D03*
X022016Y008252D03*
X022016Y008652D03*
X022016Y009052D03*
D12*
X022492Y009892D03*
X022492Y010600D03*
D13*
X021794Y011392D03*
X021086Y011392D03*
D14*
X018156Y009712D03*
X018156Y009082D03*
D15*
X017351Y008382D03*
X016681Y008382D03*
X016604Y009710D03*
X017273Y009710D03*
X023456Y006436D03*
X023456Y005767D03*
X017916Y005636D03*
X017916Y004967D03*
D16*
X022581Y005002D03*
X023251Y005002D03*
X024481Y006902D03*
X025151Y006902D03*
X024316Y008267D03*
X024316Y008936D03*
X016943Y011413D03*
X016273Y011413D03*
X016398Y001294D03*
X017067Y001294D03*
D17*
X018159Y000961D03*
X018159Y001827D03*
D18*
X020251Y001824D03*
X020506Y001824D03*
X020762Y001824D03*
X021018Y001824D03*
X021274Y001824D03*
D19*
X019235Y000820D03*
X022286Y000776D03*
D20*
X011569Y006413D03*
X011569Y006913D03*
X011569Y007413D03*
X011569Y007913D03*
X011569Y008413D03*
X011569Y008913D03*
X011569Y009413D03*
X011569Y009913D03*
X013773Y009913D03*
X013773Y009413D03*
X013773Y008913D03*
X013773Y008413D03*
X013773Y007913D03*
X013773Y007413D03*
X013773Y006913D03*
X013773Y006413D03*
D21*
X010432Y007411D03*
X009369Y007411D03*
X012171Y010706D03*
X013234Y010706D03*
D22*
X010240Y009917D03*
X010240Y008854D03*
D23*
X014167Y011039D03*
X015112Y011413D03*
X014167Y011787D03*
M02*
