G75*
G70*
%OFA0B0*%
%FSLAX24Y24*%
%IPPOS*%
%LPD*%
%AMOC8*
5,1,8,0,0,1.08239X$1,22.5*
%
%ADD10R,0.0433X0.0394*%
%ADD11R,0.0512X0.0591*%
%ADD12R,0.0394X0.0433*%
%ADD13R,0.0250X0.1400*%
%ADD14R,0.1400X0.0250*%
%ADD15R,0.0709X0.0394*%
%ADD16R,0.0394X0.0709*%
%ADD17R,0.0276X0.0335*%
%ADD18R,0.0866X0.0315*%
%ADD19R,0.0591X0.0138*%
%ADD20R,0.0630X0.0630*%
D10*
X013519Y002281D03*
X013519Y002951D03*
X014441Y005106D03*
X014441Y005776D03*
X013876Y008521D03*
X013206Y008521D03*
X013129Y009849D03*
X013798Y009849D03*
X019981Y006576D03*
X019981Y005906D03*
D11*
X009657Y007189D03*
X008909Y007189D03*
D12*
X013206Y006641D03*
X013876Y006641D03*
X019106Y005141D03*
X019776Y005141D03*
X021006Y007041D03*
X021676Y007041D03*
X020841Y008406D03*
X020841Y009076D03*
X006012Y001128D03*
X005342Y001128D03*
X004322Y009759D03*
X003653Y009759D03*
X003639Y011054D03*
X004309Y011054D03*
D13*
X016991Y009741D03*
X017391Y009741D03*
X017391Y005791D03*
X016991Y005791D03*
D14*
X015841Y006391D03*
X015841Y006791D03*
X015841Y007191D03*
X015841Y007591D03*
X015841Y007991D03*
X015841Y008391D03*
X015841Y008791D03*
X015841Y009191D03*
X018541Y009191D03*
X018541Y008791D03*
X018541Y008391D03*
X018541Y007991D03*
X018541Y007591D03*
X018541Y007191D03*
X018541Y006791D03*
X018541Y006391D03*
D15*
X019017Y010031D03*
X019017Y010740D03*
D16*
X018319Y011532D03*
X017611Y011532D03*
D17*
X014681Y009851D03*
X014681Y009221D03*
D18*
X003267Y003147D03*
X003267Y002281D03*
D19*
X001963Y002168D03*
X001963Y002424D03*
X001963Y002680D03*
X001963Y002936D03*
X001963Y003191D03*
D20*
X000916Y001156D03*
X000959Y004207D03*
M02*
