G75*
G70*
%OFA0B0*%
%FSLAX24Y24*%
%IPPOS*%
%LPD*%
%AMOC8*
5,1,8,0,0,1.08239X$1,22.5*
%
%ADD10R,0.0197X0.0591*%
%ADD11R,0.0591X0.0197*%
%ADD12OC8,0.0480*%
%ADD13C,0.0380*%
%ADD14R,0.0433X0.0394*%
%ADD15R,0.0250X0.0500*%
%ADD16C,0.0709*%
%ADD17R,0.0740X0.0740*%
%ADD18OC8,0.0740*%
%ADD19R,0.0551X0.0394*%
%ADD20R,0.0394X0.0433*%
%ADD21R,0.0866X0.0315*%
%ADD22R,0.0480X0.0880*%
%ADD23R,0.1417X0.0866*%
%ADD24C,0.0120*%
%ADD25C,0.0160*%
%ADD26C,0.0376*%
%ADD27C,0.0320*%
%ADD28C,0.0080*%
%ADD29C,0.0270*%
%ADD30C,0.0100*%
%ADD31C,0.0200*%
%ADD32C,0.0060*%
D10*
X007761Y005915D03*
X008076Y005915D03*
X008391Y005915D03*
X008706Y005915D03*
X009021Y005915D03*
X009336Y005915D03*
X009651Y005915D03*
X009966Y005915D03*
X010281Y005915D03*
X010596Y005915D03*
X010911Y005915D03*
X010911Y010482D03*
X010596Y010482D03*
X010281Y010482D03*
X009966Y010482D03*
X009651Y010482D03*
X009336Y010482D03*
X009021Y010482D03*
X008706Y010482D03*
X008391Y010482D03*
X008076Y010482D03*
X007761Y010482D03*
D11*
X007053Y009774D03*
X007053Y009459D03*
X007053Y009144D03*
X007053Y008829D03*
X007053Y008514D03*
X007053Y008199D03*
X007053Y007884D03*
X007053Y007569D03*
X007053Y007254D03*
X007053Y006939D03*
X007053Y006624D03*
X011620Y006624D03*
X011620Y006939D03*
X011620Y007254D03*
X011620Y007569D03*
X011620Y007884D03*
X011620Y008199D03*
X011620Y008514D03*
X011620Y008829D03*
X011620Y009144D03*
X011620Y009459D03*
X011620Y009774D03*
D12*
X016039Y002739D03*
X016039Y001739D03*
X016039Y000739D03*
D13*
X007429Y001756D02*
X007049Y001756D01*
X007049Y003756D02*
X007429Y003756D01*
D14*
X007800Y003158D03*
X008469Y003158D03*
X008623Y002329D03*
X007954Y002329D03*
X003371Y003928D03*
X003371Y004597D03*
X002174Y004593D03*
X002174Y003924D03*
X013166Y009141D03*
X013836Y009141D03*
X018281Y005836D03*
X018281Y005166D03*
X017231Y001656D03*
X017231Y000986D03*
D15*
X014679Y001114D03*
X012829Y001114D03*
X012868Y004185D03*
X014679Y004185D03*
D16*
X018140Y003139D02*
X018848Y003139D01*
X018848Y002139D02*
X018140Y002139D01*
X018140Y001139D02*
X018848Y001139D01*
X019987Y010241D02*
X020695Y010241D01*
X020695Y011241D02*
X019987Y011241D01*
X002569Y010839D02*
X002569Y010130D01*
X001569Y010130D02*
X001569Y010839D01*
X001924Y009102D02*
X001215Y009102D01*
X001215Y008102D02*
X001924Y008102D01*
X001924Y007102D02*
X001215Y007102D01*
X001215Y006102D02*
X001924Y006102D01*
D17*
X011936Y002868D03*
D18*
X010936Y002868D03*
X009936Y002868D03*
X009936Y001868D03*
X010936Y001868D03*
X011936Y001868D03*
D19*
X003669Y010167D03*
X004614Y010541D03*
X003669Y010915D03*
D20*
X013841Y007556D03*
X013841Y006886D03*
X020166Y007441D03*
X020836Y007441D03*
X004708Y001114D03*
X004039Y001114D03*
D21*
X020839Y008282D03*
X020839Y009148D03*
D22*
X005851Y002421D03*
X004941Y002421D03*
X004031Y002421D03*
D23*
X004941Y004861D03*
D24*
X003371Y004597D02*
X002208Y004537D01*
X002174Y004593D01*
X002174Y003924D02*
X001921Y003581D01*
X001481Y003581D01*
X004941Y003541D02*
X004941Y008141D01*
X004999Y008199D01*
X006453Y008199D02*
X007053Y008199D01*
X007050Y008196D01*
X007724Y008196D01*
X008051Y008514D02*
X009374Y009836D01*
X009374Y010445D01*
X009336Y010482D01*
X009336Y007874D01*
X009374Y007836D01*
X009336Y007799D01*
X009336Y006641D01*
X009336Y005915D01*
X009336Y004025D01*
X008469Y003158D01*
X008469Y002483D01*
X008623Y002329D01*
X009305Y002329D01*
X009936Y001868D01*
X012868Y004185D02*
X013541Y003712D01*
X013541Y003541D01*
X014297Y004185D02*
X013941Y004541D01*
X013141Y005341D01*
X013141Y007941D01*
X013166Y007966D01*
X013166Y009141D01*
X012341Y008741D02*
X012114Y008514D01*
X011620Y008514D01*
X011620Y008199D02*
X012883Y008199D01*
X013141Y007941D01*
X011620Y008199D02*
X011617Y008196D01*
X010794Y008196D01*
X010434Y007836D01*
X009374Y007836D01*
X009674Y008176D02*
X009774Y008236D01*
X008051Y008514D02*
X007053Y008514D01*
X003669Y010915D02*
X003669Y011025D01*
X003247Y011447D01*
X008706Y005915D02*
X008674Y005883D01*
X009966Y005915D02*
X009966Y005044D01*
X009974Y005036D01*
X010274Y004836D02*
X010274Y005908D01*
X010281Y005915D01*
X010594Y005913D02*
X010596Y005915D01*
X010594Y005913D02*
X010594Y005466D01*
X010592Y005070D01*
X011925Y005070D01*
X011434Y005359D02*
X010911Y005915D01*
X010274Y004836D02*
X010374Y004736D01*
X010474Y004736D01*
X014297Y004185D02*
X014679Y004185D01*
X015241Y003623D01*
X015241Y002761D01*
X015241Y000841D01*
X014741Y000541D01*
X004612Y000541D01*
X004039Y001114D01*
X015241Y002761D02*
X016039Y002739D01*
X018094Y002739D01*
X018494Y003139D01*
X020836Y007441D02*
X021136Y007741D01*
X021341Y007741D01*
X020839Y008243D01*
X020839Y008282D01*
X017741Y008261D02*
X017501Y008021D01*
X017741Y008261D02*
X017741Y009541D01*
X017541Y009741D01*
X016541Y009741D01*
D25*
X020341Y010241D02*
X020839Y009743D01*
X020839Y009148D01*
X012868Y004185D02*
X009936Y004185D01*
X009936Y002868D01*
X004941Y002421D02*
X004941Y003541D01*
X004031Y003107D02*
X003371Y003928D01*
X003068Y003868D01*
X002741Y003541D01*
X004031Y003107D02*
X004031Y002421D01*
X003281Y001601D02*
X003768Y001114D01*
X004039Y001114D01*
X009651Y005915D02*
X009651Y006531D01*
X010192Y006634D01*
X008074Y007936D02*
X007724Y008196D01*
X009021Y010482D02*
X009031Y010492D01*
X009031Y010921D01*
X009051Y010941D02*
X009641Y010941D01*
X009651Y010931D01*
X009651Y010482D01*
X018494Y003139D02*
X018496Y003141D01*
X017231Y001656D02*
X016066Y001756D01*
X016039Y001739D01*
X016039Y001741D01*
X016011Y000996D02*
X016039Y000739D01*
X016011Y000996D02*
X017231Y000986D01*
D26*
X010192Y006634D03*
X008702Y006636D03*
X008074Y007936D03*
X009674Y008176D03*
D27*
X009774Y008236D02*
X010674Y008936D01*
X009336Y006641D02*
X008702Y006636D01*
D28*
X008376Y006844D02*
X008291Y006759D01*
X008291Y006573D01*
X008323Y006541D01*
X009466Y006541D01*
X009460Y006571D01*
X009471Y006586D01*
X009471Y006606D01*
X009512Y006646D01*
X009544Y006694D01*
X009563Y006698D01*
X009576Y006711D01*
X009634Y006711D01*
X009936Y006769D01*
X009948Y006798D01*
X010029Y006879D01*
X010135Y006923D01*
X010249Y006923D01*
X010355Y006879D01*
X010436Y006798D01*
X010480Y006692D01*
X010480Y006577D01*
X010465Y006541D01*
X010541Y006541D01*
X010941Y006941D01*
X010941Y007016D01*
X010844Y007016D01*
X010706Y007154D01*
X010706Y007348D01*
X010844Y007486D01*
X010941Y007486D01*
X010941Y008457D01*
X010740Y008658D01*
X009921Y008022D01*
X009918Y008013D01*
X009837Y007932D01*
X009731Y007888D01*
X009616Y007888D01*
X009510Y007932D01*
X009429Y008013D01*
X009385Y008119D01*
X009385Y008234D01*
X009429Y008340D01*
X009510Y008421D01*
X009616Y008464D01*
X009643Y008464D01*
X010369Y009029D01*
X009611Y009786D01*
X009557Y009841D01*
X007741Y009841D01*
X007641Y009441D01*
X007641Y008366D01*
X007771Y008385D01*
X007998Y008217D01*
X008016Y008224D01*
X008131Y008224D01*
X008237Y008181D01*
X008318Y008100D01*
X008362Y007994D01*
X008362Y007879D01*
X008318Y007773D01*
X008237Y007692D01*
X008131Y007648D01*
X008016Y007648D01*
X007910Y007692D01*
X007829Y007773D01*
X007785Y007879D01*
X007785Y007926D01*
X007641Y008033D01*
X007641Y006913D01*
X007694Y006966D01*
X007888Y006966D01*
X007906Y006948D01*
X007906Y007038D01*
X008044Y007176D01*
X008238Y007176D01*
X008376Y007038D01*
X008376Y006844D01*
X008350Y006817D02*
X009968Y006817D01*
X010070Y006896D02*
X008376Y006896D01*
X008376Y006974D02*
X010941Y006974D01*
X010896Y006896D02*
X010314Y006896D01*
X010417Y006817D02*
X010817Y006817D01*
X010739Y006739D02*
X010461Y006739D01*
X010480Y006660D02*
X010660Y006660D01*
X010582Y006582D02*
X010480Y006582D01*
X009779Y006739D02*
X008291Y006739D01*
X008291Y006660D02*
X009521Y006660D01*
X009468Y006582D02*
X008291Y006582D01*
X007906Y006974D02*
X007641Y006974D01*
X007641Y007053D02*
X007921Y007053D01*
X007999Y007131D02*
X007641Y007131D01*
X007641Y007210D02*
X010706Y007210D01*
X010706Y007289D02*
X007641Y007289D01*
X007641Y007367D02*
X010725Y007367D01*
X010803Y007446D02*
X007641Y007446D01*
X007641Y007524D02*
X010941Y007524D01*
X010941Y007603D02*
X007641Y007603D01*
X007641Y007681D02*
X007936Y007681D01*
X007843Y007760D02*
X007641Y007760D01*
X007641Y007838D02*
X007802Y007838D01*
X007785Y007917D02*
X007641Y007917D01*
X007641Y007995D02*
X007692Y007995D01*
X007979Y008231D02*
X009385Y008231D01*
X009385Y008153D02*
X008265Y008153D01*
X008328Y008074D02*
X009404Y008074D01*
X009447Y007995D02*
X008361Y007995D01*
X008362Y007917D02*
X009547Y007917D01*
X009800Y007917D02*
X010941Y007917D01*
X010941Y007995D02*
X009900Y007995D01*
X009988Y008074D02*
X010941Y008074D01*
X010941Y008153D02*
X010089Y008153D01*
X010190Y008231D02*
X010941Y008231D01*
X010941Y008310D02*
X010291Y008310D01*
X010392Y008388D02*
X010941Y008388D01*
X010931Y008467D02*
X010493Y008467D01*
X010594Y008545D02*
X010853Y008545D01*
X010774Y008624D02*
X010695Y008624D01*
X010151Y008859D02*
X007641Y008859D01*
X007641Y008781D02*
X010050Y008781D01*
X009949Y008702D02*
X007641Y008702D01*
X007641Y008624D02*
X009848Y008624D01*
X009747Y008545D02*
X007641Y008545D01*
X007641Y008467D02*
X009646Y008467D01*
X009478Y008388D02*
X007641Y008388D01*
X007873Y008310D02*
X009417Y008310D01*
X010252Y008938D02*
X007641Y008938D01*
X007641Y009016D02*
X010353Y009016D01*
X010303Y009095D02*
X007641Y009095D01*
X007641Y009174D02*
X010224Y009174D01*
X010146Y009252D02*
X007641Y009252D01*
X007641Y009331D02*
X010067Y009331D01*
X009989Y009409D02*
X007641Y009409D01*
X007653Y009488D02*
X009910Y009488D01*
X009831Y009566D02*
X007672Y009566D01*
X007692Y009645D02*
X009753Y009645D01*
X009674Y009723D02*
X007712Y009723D01*
X007731Y009802D02*
X009596Y009802D01*
X008345Y007838D02*
X010941Y007838D01*
X010941Y007760D02*
X008304Y007760D01*
X008211Y007681D02*
X010941Y007681D01*
X010728Y007131D02*
X008283Y007131D01*
X008362Y007053D02*
X010807Y007053D01*
X013527Y007053D02*
X013544Y007053D01*
X013544Y007131D02*
X013527Y007131D01*
X013544Y007144D02*
X013544Y006628D01*
X013603Y006570D01*
X014079Y006570D01*
X014138Y006628D01*
X014138Y006741D01*
X014323Y006741D01*
X014411Y006829D01*
X014891Y007309D01*
X014891Y007359D01*
X014976Y007444D01*
X014976Y007638D01*
X014838Y007776D01*
X014644Y007776D01*
X014506Y007638D01*
X014506Y007444D01*
X014554Y007396D01*
X014199Y007041D01*
X014138Y007041D01*
X014138Y007144D01*
X014079Y007203D01*
X013603Y007203D01*
X013544Y007144D01*
X013527Y007210D02*
X014368Y007210D01*
X014446Y007289D02*
X014129Y007289D01*
X014138Y007298D02*
X014138Y007640D01*
X014224Y007726D01*
X014244Y007706D01*
X014438Y007706D01*
X014576Y007844D01*
X014576Y008038D01*
X014438Y008176D01*
X014244Y008176D01*
X014106Y008038D01*
X014106Y008033D01*
X013945Y007872D01*
X013603Y007872D01*
X013544Y007814D01*
X013544Y007298D01*
X013603Y007239D01*
X014079Y007239D01*
X014138Y007298D01*
X014138Y007367D02*
X014525Y007367D01*
X014506Y007446D02*
X014138Y007446D01*
X014138Y007524D02*
X014506Y007524D01*
X014506Y007603D02*
X014138Y007603D01*
X014179Y007681D02*
X014549Y007681D01*
X014492Y007760D02*
X014627Y007760D01*
X014571Y007838D02*
X017351Y007838D01*
X017404Y007786D02*
X017598Y007786D01*
X017736Y007924D01*
X017736Y008030D01*
X017901Y008195D01*
X017901Y008327D01*
X017901Y009607D01*
X017807Y009701D01*
X017607Y009901D01*
X017475Y009901D01*
X016713Y009901D01*
X016638Y009976D01*
X016444Y009976D01*
X016306Y009838D01*
X016306Y009644D01*
X016444Y009506D01*
X016638Y009506D01*
X016713Y009581D01*
X017475Y009581D01*
X017581Y009475D01*
X017581Y008943D01*
X017498Y009026D01*
X017304Y009026D01*
X017219Y008941D01*
X016803Y008941D01*
X015821Y009924D01*
X015696Y009924D01*
X013527Y009924D01*
X013527Y012346D01*
X013531Y012611D01*
X015159Y012611D01*
X014898Y012503D01*
X014667Y012272D01*
X014542Y011971D01*
X014542Y011645D01*
X014667Y011343D01*
X014898Y011113D01*
X015199Y010988D01*
X015525Y010988D01*
X015827Y011113D01*
X016057Y011343D01*
X016182Y011645D01*
X016182Y011971D01*
X016057Y012272D01*
X015827Y012503D01*
X015565Y012611D01*
X021831Y012611D01*
X021795Y002897D01*
X019280Y002897D01*
X019306Y002949D01*
X019331Y003023D01*
X019343Y003099D01*
X018534Y003099D01*
X018534Y003179D01*
X019343Y003179D01*
X019331Y003255D01*
X019306Y003329D01*
X019271Y003398D01*
X019225Y003461D01*
X019170Y003516D01*
X019107Y003562D01*
X019038Y003597D01*
X018964Y003621D01*
X018887Y003633D01*
X018534Y003633D01*
X018534Y003179D01*
X018454Y003179D01*
X018454Y003099D01*
X017646Y003099D01*
X017658Y003023D01*
X017682Y002949D01*
X017708Y002897D01*
X016418Y002897D01*
X016196Y003119D01*
X016079Y003119D01*
X016079Y002897D01*
X015999Y002897D01*
X015999Y003119D01*
X015881Y003119D01*
X015660Y002897D01*
X013527Y002897D01*
X013527Y003306D01*
X013638Y003306D01*
X013776Y003444D01*
X013776Y003638D01*
X013704Y003711D01*
X013701Y003726D01*
X013701Y003779D01*
X013690Y003790D01*
X013687Y003805D01*
X013644Y003835D01*
X013607Y003872D01*
X013592Y003872D01*
X013527Y003918D01*
X013527Y008895D01*
X013578Y008844D01*
X014094Y008844D01*
X014152Y008903D01*
X014152Y008978D01*
X014306Y008824D01*
X014306Y008704D01*
X014444Y008566D01*
X014638Y008566D01*
X014776Y008704D01*
X014776Y008898D01*
X014638Y009036D01*
X014518Y009036D01*
X014263Y009291D01*
X014152Y009291D01*
X014152Y009379D01*
X014150Y009381D01*
X015489Y009381D01*
X015591Y009279D01*
X015591Y009269D01*
X016541Y008319D01*
X016629Y008231D01*
X017229Y008231D01*
X013527Y008231D01*
X013527Y008153D02*
X014220Y008153D01*
X014142Y008074D02*
X013527Y008074D01*
X013527Y007995D02*
X014069Y007995D01*
X013990Y007917D02*
X013527Y007917D01*
X013527Y007838D02*
X013569Y007838D01*
X013544Y007760D02*
X013527Y007760D01*
X013527Y007681D02*
X013544Y007681D01*
X013544Y007603D02*
X013527Y007603D01*
X013527Y007524D02*
X013544Y007524D01*
X013544Y007446D02*
X013527Y007446D01*
X013527Y007367D02*
X013544Y007367D01*
X013553Y007289D02*
X013527Y007289D01*
X013527Y006974D02*
X013544Y006974D01*
X013544Y006896D02*
X013527Y006896D01*
X013527Y006817D02*
X013544Y006817D01*
X013544Y006739D02*
X013527Y006739D01*
X013527Y006660D02*
X013544Y006660D01*
X013527Y006582D02*
X013591Y006582D01*
X013527Y006503D02*
X021808Y006503D01*
X021808Y006425D02*
X013527Y006425D01*
X013527Y006346D02*
X021808Y006346D01*
X021807Y006267D02*
X013527Y006267D01*
X013527Y006189D02*
X018777Y006189D01*
X018814Y006226D02*
X018676Y006088D01*
X018676Y005986D01*
X018598Y005986D01*
X018598Y006074D01*
X018539Y006133D01*
X018023Y006133D01*
X017965Y006074D01*
X017965Y005597D01*
X018023Y005539D01*
X018539Y005539D01*
X018598Y005597D01*
X018598Y005686D01*
X018694Y005686D01*
X018818Y005686D01*
X018888Y005756D01*
X019008Y005756D01*
X019146Y005894D01*
X019146Y006088D01*
X019008Y006226D01*
X018814Y006226D01*
X018698Y006110D02*
X018561Y006110D01*
X018598Y006032D02*
X018676Y006032D01*
X018850Y005718D02*
X021805Y005718D01*
X021806Y005796D02*
X019049Y005796D01*
X019127Y005875D02*
X021806Y005875D01*
X021806Y005953D02*
X019146Y005953D01*
X019146Y006032D02*
X021806Y006032D01*
X021807Y006110D02*
X019124Y006110D01*
X019046Y006189D02*
X021807Y006189D01*
X021808Y006582D02*
X014091Y006582D01*
X014138Y006660D02*
X021809Y006660D01*
X021809Y006739D02*
X014138Y006739D01*
X014399Y006817D02*
X021809Y006817D01*
X021810Y006896D02*
X014478Y006896D01*
X014556Y006974D02*
X021810Y006974D01*
X021810Y007053D02*
X014635Y007053D01*
X014714Y007131D02*
X019921Y007131D01*
X019928Y007125D02*
X020405Y007125D01*
X020463Y007183D01*
X020463Y007699D01*
X020405Y007758D01*
X019928Y007758D01*
X019878Y007707D01*
X019748Y007836D01*
X019554Y007836D01*
X019416Y007698D01*
X019416Y007504D01*
X019554Y007366D01*
X019674Y007366D01*
X019749Y007291D01*
X019870Y007291D01*
X019870Y007183D01*
X019928Y007125D01*
X019870Y007210D02*
X014792Y007210D01*
X014871Y007289D02*
X019870Y007289D01*
X019553Y007367D02*
X014899Y007367D01*
X014976Y007446D02*
X019474Y007446D01*
X019416Y007524D02*
X014976Y007524D01*
X014976Y007603D02*
X019416Y007603D01*
X019416Y007681D02*
X014933Y007681D01*
X014855Y007760D02*
X019477Y007760D01*
X019825Y007760D02*
X020928Y007760D01*
X020926Y007758D02*
X020597Y007758D01*
X020539Y007699D01*
X020539Y007183D01*
X020597Y007125D01*
X021074Y007125D01*
X021133Y007183D01*
X021133Y007512D01*
X021185Y007564D01*
X021244Y007506D01*
X021438Y007506D01*
X021576Y007644D01*
X021576Y007838D01*
X021813Y007838D01*
X021813Y007760D02*
X021576Y007760D01*
X021576Y007838D02*
X021438Y007976D01*
X021332Y007976D01*
X021284Y008024D01*
X021314Y008024D01*
X021372Y008083D01*
X021372Y008481D01*
X021314Y008539D01*
X020365Y008539D01*
X020306Y008481D01*
X020306Y008083D01*
X020365Y008024D01*
X020832Y008024D01*
X021012Y007844D01*
X020926Y007758D01*
X021007Y007838D02*
X017651Y007838D01*
X017729Y007917D02*
X020939Y007917D01*
X020860Y007995D02*
X017736Y007995D01*
X017780Y008074D02*
X020315Y008074D01*
X020306Y008153D02*
X017859Y008153D01*
X017901Y008231D02*
X020306Y008231D01*
X020306Y008310D02*
X017901Y008310D01*
X017901Y008388D02*
X020306Y008388D01*
X020306Y008467D02*
X017901Y008467D01*
X017901Y008545D02*
X021816Y008545D01*
X021816Y008467D02*
X021372Y008467D01*
X021372Y008388D02*
X021815Y008388D01*
X021815Y008310D02*
X021372Y008310D01*
X021372Y008231D02*
X021815Y008231D01*
X021814Y008153D02*
X021372Y008153D01*
X021363Y008074D02*
X021814Y008074D01*
X021814Y007995D02*
X021313Y007995D01*
X021498Y007917D02*
X021814Y007917D01*
X021813Y007681D02*
X021576Y007681D01*
X021535Y007603D02*
X021812Y007603D01*
X021812Y007524D02*
X021456Y007524D01*
X021226Y007524D02*
X021145Y007524D01*
X021133Y007446D02*
X021812Y007446D01*
X021811Y007367D02*
X021133Y007367D01*
X021133Y007289D02*
X021811Y007289D01*
X021811Y007210D02*
X021133Y007210D01*
X021081Y007131D02*
X021811Y007131D01*
X020591Y007131D02*
X020412Y007131D01*
X020463Y007210D02*
X020539Y007210D01*
X020539Y007289D02*
X020463Y007289D01*
X020463Y007367D02*
X020539Y007367D01*
X020539Y007446D02*
X020463Y007446D01*
X020463Y007524D02*
X020539Y007524D01*
X020539Y007603D02*
X020463Y007603D01*
X020463Y007681D02*
X020539Y007681D01*
X021816Y008624D02*
X017901Y008624D01*
X017901Y008702D02*
X021816Y008702D01*
X021817Y008781D02*
X017901Y008781D01*
X017901Y008859D02*
X020354Y008859D01*
X020352Y008860D02*
X020388Y008850D01*
X020800Y008850D01*
X020800Y009109D01*
X020266Y009109D01*
X020266Y008972D01*
X020276Y008936D01*
X020294Y008904D01*
X020320Y008878D01*
X020352Y008860D01*
X020275Y008938D02*
X017901Y008938D01*
X017901Y009016D02*
X020266Y009016D01*
X020266Y009095D02*
X017901Y009095D01*
X017901Y009174D02*
X020800Y009174D01*
X020800Y009187D02*
X020800Y009109D01*
X020878Y009109D01*
X020878Y008850D01*
X021291Y008850D01*
X021326Y008860D01*
X021358Y008878D01*
X021384Y008904D01*
X021403Y008936D01*
X021412Y008972D01*
X021412Y009109D01*
X020878Y009109D01*
X020878Y009187D01*
X020800Y009187D01*
X020800Y009445D01*
X020388Y009445D01*
X020352Y009436D01*
X020320Y009417D01*
X020294Y009391D01*
X020276Y009359D01*
X020266Y009324D01*
X020266Y009187D01*
X020800Y009187D01*
X020800Y009252D02*
X020878Y009252D01*
X020878Y009187D02*
X020878Y009445D01*
X021291Y009445D01*
X021326Y009436D01*
X021358Y009417D01*
X021384Y009391D01*
X021403Y009359D01*
X021412Y009324D01*
X021412Y009187D01*
X020878Y009187D01*
X020878Y009174D02*
X021818Y009174D01*
X021819Y009252D02*
X021412Y009252D01*
X021410Y009331D02*
X021819Y009331D01*
X021819Y009409D02*
X021366Y009409D01*
X021412Y009095D02*
X021818Y009095D01*
X021818Y009016D02*
X021412Y009016D01*
X021403Y008938D02*
X021817Y008938D01*
X021817Y008859D02*
X021324Y008859D01*
X020878Y008859D02*
X020800Y008859D01*
X020800Y008938D02*
X020878Y008938D01*
X020878Y009016D02*
X020800Y009016D01*
X020800Y009095D02*
X020878Y009095D01*
X020878Y009331D02*
X020800Y009331D01*
X020800Y009409D02*
X020878Y009409D01*
X020811Y009759D02*
X020734Y009747D01*
X020381Y009747D01*
X020381Y010201D01*
X020301Y010201D01*
X020301Y009747D01*
X019948Y009747D01*
X019871Y009759D01*
X019797Y009783D01*
X019728Y009818D01*
X019665Y009864D01*
X019610Y009919D01*
X019564Y009982D01*
X019529Y010051D01*
X019505Y010125D01*
X019493Y010201D01*
X020301Y010201D01*
X020301Y010281D01*
X019493Y010281D01*
X019505Y010357D01*
X019529Y010431D01*
X019564Y010500D01*
X019610Y010563D01*
X019665Y010618D01*
X019728Y010664D01*
X019797Y010699D01*
X019871Y010723D01*
X019948Y010735D01*
X020301Y010735D01*
X020301Y010281D01*
X020381Y010281D01*
X020381Y010735D01*
X020734Y010735D01*
X020811Y010723D01*
X020885Y010699D01*
X020954Y010664D01*
X021017Y010618D01*
X021072Y010563D01*
X021118Y010500D01*
X021154Y010431D01*
X021178Y010357D01*
X021190Y010281D01*
X020381Y010281D01*
X020381Y010201D01*
X021190Y010201D01*
X021178Y010125D01*
X021154Y010051D01*
X021118Y009982D01*
X021072Y009919D01*
X021017Y009864D01*
X020954Y009818D01*
X020885Y009783D01*
X020811Y009759D01*
X020922Y009802D02*
X021821Y009802D01*
X021821Y009880D02*
X021034Y009880D01*
X021101Y009959D02*
X021821Y009959D01*
X021821Y010038D02*
X021146Y010038D01*
X021175Y010116D02*
X021822Y010116D01*
X021822Y010195D02*
X021189Y010195D01*
X021178Y010352D02*
X021823Y010352D01*
X021823Y010430D02*
X021154Y010430D01*
X021112Y010509D02*
X021823Y010509D01*
X021824Y010587D02*
X021048Y010587D01*
X020950Y010666D02*
X021824Y010666D01*
X021824Y010744D02*
X013527Y010744D01*
X013527Y010666D02*
X019732Y010666D01*
X019634Y010587D02*
X013527Y010587D01*
X013527Y010509D02*
X019570Y010509D01*
X019529Y010430D02*
X013527Y010430D01*
X013527Y010352D02*
X019504Y010352D01*
X019494Y010195D02*
X013527Y010195D01*
X013527Y010273D02*
X020301Y010273D01*
X020301Y010195D02*
X020381Y010195D01*
X020381Y010273D02*
X021822Y010273D01*
X021820Y009723D02*
X017785Y009723D01*
X017864Y009645D02*
X021820Y009645D01*
X021820Y009566D02*
X017901Y009566D01*
X017901Y009488D02*
X021819Y009488D01*
X020381Y009802D02*
X020301Y009802D01*
X020301Y009880D02*
X020381Y009880D01*
X020381Y009959D02*
X020301Y009959D01*
X020301Y010038D02*
X020381Y010038D01*
X020381Y010116D02*
X020301Y010116D01*
X020301Y010352D02*
X020381Y010352D01*
X020381Y010430D02*
X020301Y010430D01*
X020301Y010509D02*
X020381Y010509D01*
X020381Y010587D02*
X020301Y010587D01*
X020301Y010666D02*
X020381Y010666D01*
X020786Y010787D02*
X020953Y010856D01*
X021081Y010984D01*
X021150Y011151D01*
X021150Y011331D01*
X021081Y011498D01*
X020953Y011626D01*
X020786Y011695D01*
X019896Y011695D01*
X019729Y011626D01*
X019602Y011498D01*
X019532Y011331D01*
X019532Y011151D01*
X019602Y010984D01*
X019729Y010856D01*
X019896Y010787D01*
X020786Y010787D01*
X020873Y010823D02*
X021824Y010823D01*
X021825Y010902D02*
X020998Y010902D01*
X021077Y010980D02*
X021825Y010980D01*
X021825Y011059D02*
X021112Y011059D01*
X021144Y011137D02*
X021826Y011137D01*
X021826Y011216D02*
X021150Y011216D01*
X021150Y011294D02*
X021826Y011294D01*
X021826Y011373D02*
X021133Y011373D01*
X021100Y011451D02*
X021827Y011451D01*
X021827Y011530D02*
X021049Y011530D01*
X020971Y011608D02*
X021827Y011608D01*
X021828Y011687D02*
X020806Y011687D01*
X021828Y011766D02*
X016182Y011766D01*
X016182Y011844D02*
X021828Y011844D01*
X021829Y011923D02*
X016182Y011923D01*
X016170Y012001D02*
X021829Y012001D01*
X021829Y012080D02*
X016137Y012080D01*
X016105Y012158D02*
X021829Y012158D01*
X021830Y012237D02*
X016072Y012237D01*
X016014Y012315D02*
X021830Y012315D01*
X021830Y012394D02*
X015936Y012394D01*
X015857Y012472D02*
X021831Y012472D01*
X021831Y012551D02*
X015711Y012551D01*
X015014Y012551D02*
X013530Y012551D01*
X013529Y012472D02*
X014867Y012472D01*
X014789Y012394D02*
X013528Y012394D01*
X013527Y012315D02*
X014710Y012315D01*
X014652Y012237D02*
X013527Y012237D01*
X013527Y012158D02*
X014620Y012158D01*
X014587Y012080D02*
X013527Y012080D01*
X013527Y012001D02*
X014555Y012001D01*
X014542Y011923D02*
X013527Y011923D01*
X013527Y011844D02*
X014542Y011844D01*
X014542Y011766D02*
X013527Y011766D01*
X013527Y011687D02*
X014542Y011687D01*
X014557Y011608D02*
X013527Y011608D01*
X013527Y011530D02*
X014590Y011530D01*
X014622Y011451D02*
X013527Y011451D01*
X013527Y011373D02*
X014655Y011373D01*
X014716Y011294D02*
X013527Y011294D01*
X013527Y011216D02*
X014795Y011216D01*
X014873Y011137D02*
X013527Y011137D01*
X013527Y011059D02*
X015028Y011059D01*
X015696Y011059D02*
X019571Y011059D01*
X019538Y011137D02*
X015851Y011137D01*
X015930Y011216D02*
X019532Y011216D01*
X019532Y011294D02*
X016008Y011294D01*
X016070Y011373D02*
X019550Y011373D01*
X019582Y011451D02*
X016102Y011451D01*
X016135Y011530D02*
X019633Y011530D01*
X019712Y011608D02*
X016167Y011608D01*
X016182Y011687D02*
X019876Y011687D01*
X019605Y010980D02*
X013527Y010980D01*
X013527Y010902D02*
X019684Y010902D01*
X019809Y010823D02*
X013527Y010823D01*
X013527Y010116D02*
X019508Y010116D01*
X019536Y010038D02*
X013527Y010038D01*
X013527Y009959D02*
X016427Y009959D01*
X016348Y009880D02*
X015864Y009880D01*
X015942Y009802D02*
X016306Y009802D01*
X016306Y009723D02*
X016021Y009723D01*
X016099Y009645D02*
X016306Y009645D01*
X016384Y009566D02*
X016178Y009566D01*
X016257Y009488D02*
X017568Y009488D01*
X017581Y009409D02*
X016335Y009409D01*
X016414Y009331D02*
X017581Y009331D01*
X017581Y009252D02*
X016492Y009252D01*
X016571Y009174D02*
X017581Y009174D01*
X017581Y009095D02*
X016649Y009095D01*
X016728Y009016D02*
X017294Y009016D01*
X017508Y009016D02*
X017581Y009016D01*
X017901Y009252D02*
X020266Y009252D01*
X020268Y009331D02*
X017901Y009331D01*
X017901Y009409D02*
X020312Y009409D01*
X019760Y009802D02*
X017706Y009802D01*
X017628Y009880D02*
X019648Y009880D01*
X019581Y009959D02*
X016655Y009959D01*
X016699Y009566D02*
X017490Y009566D01*
X016158Y008702D02*
X014775Y008702D01*
X014776Y008781D02*
X016079Y008781D01*
X016001Y008859D02*
X014776Y008859D01*
X014737Y008938D02*
X015922Y008938D01*
X015844Y009016D02*
X014658Y009016D01*
X014459Y009095D02*
X015765Y009095D01*
X015686Y009174D02*
X014381Y009174D01*
X014302Y009252D02*
X015608Y009252D01*
X015539Y009331D02*
X014152Y009331D01*
X014152Y008938D02*
X014192Y008938D01*
X014271Y008859D02*
X014109Y008859D01*
X014306Y008781D02*
X013527Y008781D01*
X013527Y008859D02*
X013563Y008859D01*
X013527Y008702D02*
X014308Y008702D01*
X014386Y008624D02*
X013527Y008624D01*
X013527Y008545D02*
X016315Y008545D01*
X016393Y008467D02*
X013527Y008467D01*
X013527Y008388D02*
X016472Y008388D01*
X016550Y008310D02*
X013527Y008310D01*
X014462Y008153D02*
X017300Y008153D01*
X017304Y008156D02*
X017304Y008156D01*
X017266Y008118D01*
X017266Y007924D01*
X017404Y007786D01*
X017273Y007917D02*
X014576Y007917D01*
X014576Y007995D02*
X017266Y007995D01*
X017266Y008074D02*
X014541Y008074D01*
X014696Y008624D02*
X016236Y008624D01*
X017229Y008231D02*
X017304Y008156D01*
X014289Y007131D02*
X014138Y007131D01*
X014138Y007053D02*
X014211Y007053D01*
X013527Y006110D02*
X018001Y006110D01*
X017965Y006032D02*
X013527Y006032D01*
X013527Y005953D02*
X017965Y005953D01*
X017965Y005875D02*
X013527Y005875D01*
X013527Y005796D02*
X017965Y005796D01*
X017965Y005718D02*
X013527Y005718D01*
X013527Y005639D02*
X017965Y005639D01*
X018001Y005561D02*
X013527Y005561D01*
X013527Y005482D02*
X021804Y005482D01*
X021804Y005404D02*
X018598Y005404D01*
X018598Y005405D02*
X018539Y005463D01*
X018023Y005463D01*
X017965Y005405D01*
X017965Y005316D01*
X017964Y005316D01*
X017876Y005229D01*
X017734Y005086D01*
X017614Y005086D01*
X017476Y004948D01*
X017476Y004754D01*
X017614Y004616D01*
X017808Y004616D01*
X017946Y004754D01*
X017946Y004874D01*
X017982Y004910D01*
X018023Y004870D01*
X018539Y004870D01*
X018598Y004928D01*
X018598Y005405D01*
X018598Y005325D02*
X021804Y005325D01*
X021803Y005246D02*
X018598Y005246D01*
X018598Y005168D02*
X021803Y005168D01*
X021803Y005089D02*
X018598Y005089D01*
X018598Y005011D02*
X021803Y005011D01*
X021802Y004932D02*
X018598Y004932D01*
X017946Y004854D02*
X021802Y004854D01*
X021802Y004775D02*
X017946Y004775D01*
X017889Y004697D02*
X021801Y004697D01*
X021801Y004618D02*
X017810Y004618D01*
X017612Y004618D02*
X013527Y004618D01*
X013527Y004540D02*
X014460Y004540D01*
X014468Y004547D02*
X014442Y004521D01*
X014424Y004489D01*
X014414Y004454D01*
X014414Y004208D01*
X014656Y004208D01*
X014656Y004163D01*
X014414Y004163D01*
X014414Y003917D01*
X014424Y003881D01*
X014442Y003849D01*
X014468Y003823D01*
X014500Y003805D01*
X014536Y003795D01*
X014657Y003795D01*
X014657Y004163D01*
X014702Y004163D01*
X014702Y004208D01*
X014944Y004208D01*
X014944Y004454D01*
X014935Y004489D01*
X014916Y004521D01*
X014890Y004547D01*
X014858Y004566D01*
X014823Y004575D01*
X014702Y004575D01*
X014702Y004208D01*
X014657Y004208D01*
X014657Y004575D01*
X014536Y004575D01*
X014500Y004566D01*
X014468Y004547D01*
X014416Y004461D02*
X013527Y004461D01*
X013527Y004382D02*
X014414Y004382D01*
X014414Y004304D02*
X013527Y004304D01*
X013527Y004225D02*
X014414Y004225D01*
X014414Y004147D02*
X013527Y004147D01*
X013527Y004068D02*
X014414Y004068D01*
X014414Y003990D02*
X013527Y003990D01*
X013536Y003911D02*
X014416Y003911D01*
X014459Y003833D02*
X013648Y003833D01*
X013701Y003754D02*
X021798Y003754D01*
X021798Y003676D02*
X013739Y003676D01*
X013776Y003597D02*
X017950Y003597D01*
X017881Y003562D01*
X017818Y003516D01*
X017763Y003461D01*
X017717Y003398D01*
X017682Y003329D01*
X017658Y003255D01*
X017646Y003179D01*
X018454Y003179D01*
X018454Y003633D01*
X018101Y003633D01*
X018024Y003621D01*
X017950Y003597D01*
X017821Y003518D02*
X013776Y003518D01*
X013772Y003440D02*
X017747Y003440D01*
X017698Y003361D02*
X013694Y003361D01*
X013527Y003283D02*
X017667Y003283D01*
X017650Y003204D02*
X013527Y003204D01*
X013527Y003126D02*
X018454Y003126D01*
X018454Y003204D02*
X018534Y003204D01*
X018534Y003126D02*
X021796Y003126D01*
X021796Y003204D02*
X019339Y003204D01*
X019321Y003283D02*
X021796Y003283D01*
X021796Y003361D02*
X019290Y003361D01*
X019241Y003440D02*
X021797Y003440D01*
X021797Y003518D02*
X019167Y003518D01*
X019039Y003597D02*
X021797Y003597D01*
X021798Y003833D02*
X014899Y003833D01*
X014890Y003823D02*
X014916Y003849D01*
X014935Y003881D01*
X014944Y003917D01*
X014944Y004163D01*
X014702Y004163D01*
X014702Y003795D01*
X014823Y003795D01*
X014858Y003805D01*
X014890Y003823D01*
X014943Y003911D02*
X021798Y003911D01*
X021799Y003990D02*
X014944Y003990D01*
X014944Y004068D02*
X021799Y004068D01*
X021799Y004147D02*
X014944Y004147D01*
X014944Y004225D02*
X021800Y004225D01*
X021800Y004304D02*
X014944Y004304D01*
X014944Y004382D02*
X021800Y004382D01*
X021801Y004461D02*
X014942Y004461D01*
X014898Y004540D02*
X021801Y004540D01*
X021805Y005561D02*
X018561Y005561D01*
X018598Y005639D02*
X021805Y005639D01*
X018534Y003597D02*
X018454Y003597D01*
X018454Y003518D02*
X018534Y003518D01*
X018534Y003440D02*
X018454Y003440D01*
X018454Y003361D02*
X018534Y003361D01*
X018534Y003283D02*
X018454Y003283D01*
X017675Y002969D02*
X016346Y002969D01*
X016268Y003047D02*
X017654Y003047D01*
X016079Y003047D02*
X015999Y003047D01*
X015999Y002969D02*
X016079Y002969D01*
X015810Y003047D02*
X013527Y003047D01*
X013527Y002969D02*
X015732Y002969D01*
X014702Y003833D02*
X014657Y003833D01*
X014657Y003911D02*
X014702Y003911D01*
X014702Y003990D02*
X014657Y003990D01*
X014657Y004068D02*
X014702Y004068D01*
X014702Y004147D02*
X014657Y004147D01*
X014657Y004225D02*
X014702Y004225D01*
X014702Y004304D02*
X014657Y004304D01*
X014657Y004382D02*
X014702Y004382D01*
X014702Y004461D02*
X014657Y004461D01*
X014657Y004540D02*
X014702Y004540D01*
X013527Y004697D02*
X017533Y004697D01*
X017476Y004775D02*
X013527Y004775D01*
X013527Y004854D02*
X017476Y004854D01*
X017476Y004932D02*
X013527Y004932D01*
X013527Y005011D02*
X017538Y005011D01*
X017737Y005089D02*
X013527Y005089D01*
X013527Y005168D02*
X017816Y005168D01*
X017876Y005229D02*
X017876Y005229D01*
X017894Y005246D02*
X013527Y005246D01*
X013527Y005325D02*
X017965Y005325D01*
X017965Y005404D02*
X013527Y005404D01*
X019334Y003047D02*
X021795Y003047D01*
X021795Y002969D02*
X019313Y002969D01*
D29*
X003281Y001601D03*
X005851Y001721D03*
X004941Y003541D03*
X002741Y003541D03*
X001481Y003581D03*
X003341Y005141D03*
X006141Y007141D03*
X007791Y006731D03*
X008141Y006941D03*
X007381Y006131D03*
X006941Y005741D03*
X009974Y005036D03*
X010474Y004736D03*
X011434Y005359D03*
X011925Y005070D03*
X012541Y006341D03*
X010941Y007251D03*
X013141Y007941D03*
X012341Y008741D03*
X014341Y007941D03*
X014741Y007541D03*
X014541Y008801D03*
X016541Y009741D03*
X017401Y008791D03*
X017401Y008391D03*
X017501Y008021D03*
X019651Y007601D03*
X021341Y007741D03*
X018911Y005991D03*
X017711Y004851D03*
X013941Y004541D03*
X013541Y003541D03*
X006453Y008199D03*
X004999Y008199D03*
X004941Y009741D03*
X003247Y011447D03*
D30*
X004614Y010541D02*
X004614Y010069D01*
X004941Y009741D01*
X006141Y009541D02*
X006741Y010141D01*
X007141Y010141D01*
X007341Y010341D01*
X007341Y010741D01*
X007741Y011141D01*
X009741Y011141D01*
X009941Y010941D01*
X009941Y010507D01*
X009966Y010482D01*
X009674Y010460D02*
X009651Y010482D01*
X009674Y010460D02*
X009674Y009936D01*
X010674Y008936D01*
X011096Y008514D01*
X011620Y008514D01*
X011620Y009459D02*
X012799Y009459D01*
X012871Y009531D01*
X015551Y009531D01*
X015741Y009341D01*
X015741Y009331D01*
X016691Y008381D01*
X017391Y008381D01*
X017401Y008391D01*
X017401Y008791D02*
X016741Y008791D01*
X015759Y009774D01*
X011620Y009774D01*
X013836Y009141D02*
X014201Y009141D01*
X014541Y008801D01*
X014341Y007941D02*
X014226Y007941D01*
X013841Y007556D01*
X014261Y006891D02*
X014741Y007371D01*
X014741Y007541D01*
X014261Y006891D02*
X013846Y006891D01*
X013841Y006886D01*
X012541Y006341D02*
X011902Y006341D01*
X011620Y006624D01*
X011617Y007251D02*
X010941Y007251D01*
X011617Y007251D02*
X011620Y007254D01*
X009021Y005915D02*
X009021Y005279D01*
X009011Y005269D01*
X009011Y004171D01*
X008596Y003756D01*
X007239Y003756D01*
X006741Y004141D02*
X008441Y004141D01*
X008701Y004401D01*
X008701Y005910D01*
X008706Y005915D01*
X008391Y005915D02*
X008391Y005915D01*
X008391Y006261D01*
X008141Y006511D01*
X008141Y006941D01*
X007791Y006731D02*
X007791Y006491D01*
X008141Y006141D01*
X008141Y005980D01*
X008076Y005915D01*
X007761Y005915D02*
X007756Y005921D01*
X007381Y006131D01*
X006941Y006512D02*
X006941Y005741D01*
X006941Y006512D02*
X007053Y006624D01*
X006141Y007141D02*
X006141Y009541D01*
X003669Y010167D02*
X002887Y010167D01*
X002569Y010485D01*
X001569Y010485D02*
X001485Y010485D01*
X000541Y009541D01*
X000541Y006741D01*
X000741Y006541D01*
X001131Y006541D01*
X001569Y006102D01*
X002131Y005541D01*
X004141Y005541D01*
X004941Y004741D01*
X004941Y003541D01*
X006541Y003341D02*
X006541Y003941D01*
X006741Y004141D01*
X006541Y003341D02*
X007413Y002469D01*
X007954Y002329D01*
X005851Y002421D02*
X005851Y001721D01*
X005244Y001114D01*
X004708Y001114D01*
X003371Y004597D02*
X003271Y005071D01*
X003341Y005141D01*
X017711Y004851D02*
X018026Y005166D01*
X018281Y005166D01*
X018281Y005836D02*
X018756Y005836D01*
X018911Y005991D01*
X019811Y007441D02*
X019651Y007601D01*
X019811Y007441D02*
X020166Y007441D01*
D31*
X007954Y002329D02*
X007814Y002331D01*
X007239Y001756D01*
X007800Y003158D02*
X007800Y003195D01*
X007239Y003756D01*
D32*
X006081Y003891D02*
X005341Y003541D01*
X005341Y001941D01*
X005305Y001941D01*
X005311Y001964D01*
X005311Y002391D01*
X004971Y002391D01*
X004971Y002451D01*
X005311Y002451D01*
X005311Y002878D01*
X005302Y002911D01*
X005285Y002941D01*
X005261Y002965D01*
X005231Y002982D01*
X005198Y002991D01*
X004971Y002991D01*
X004971Y002451D01*
X004911Y002451D01*
X004911Y002391D01*
X004571Y002391D01*
X004571Y001964D01*
X004577Y001941D01*
X004541Y001941D01*
X004541Y003541D01*
X003961Y003921D01*
X003981Y005521D01*
X006071Y005541D01*
X006081Y003891D01*
X006074Y003888D02*
X004012Y003888D01*
X003961Y003946D02*
X006081Y003946D01*
X006080Y004005D02*
X003962Y004005D01*
X003963Y004064D02*
X006080Y004064D01*
X006080Y004122D02*
X003964Y004122D01*
X003964Y004181D02*
X006079Y004181D01*
X006079Y004239D02*
X003965Y004239D01*
X003966Y004298D02*
X006079Y004298D01*
X006078Y004356D02*
X005758Y004356D01*
X005754Y004348D02*
X005771Y004378D01*
X005780Y004411D01*
X005780Y004831D01*
X004971Y004831D01*
X004971Y004298D01*
X005667Y004298D01*
X005700Y004307D01*
X005730Y004324D01*
X005754Y004348D01*
X005780Y004415D02*
X006078Y004415D01*
X006078Y004473D02*
X005780Y004473D01*
X005780Y004532D02*
X006077Y004532D01*
X006077Y004590D02*
X005780Y004590D01*
X005780Y004649D02*
X006076Y004649D01*
X006076Y004707D02*
X005780Y004707D01*
X005780Y004766D02*
X006076Y004766D01*
X006075Y004825D02*
X005780Y004825D01*
X005780Y004891D02*
X005780Y005311D01*
X005771Y005344D01*
X005754Y005374D01*
X005730Y005398D01*
X005700Y005415D01*
X005667Y005424D01*
X004971Y005424D01*
X004971Y004891D01*
X005780Y004891D01*
X005780Y004942D02*
X006075Y004942D01*
X006074Y005000D02*
X005780Y005000D01*
X005780Y005059D02*
X006074Y005059D01*
X006074Y005117D02*
X005780Y005117D01*
X005780Y005176D02*
X006073Y005176D01*
X006073Y005234D02*
X005780Y005234D01*
X005780Y005293D02*
X006073Y005293D01*
X006072Y005351D02*
X005767Y005351D01*
X005709Y005410D02*
X006072Y005410D01*
X006072Y005469D02*
X003980Y005469D01*
X003980Y005410D02*
X004173Y005410D01*
X004182Y005415D02*
X004153Y005398D01*
X004128Y005374D01*
X004111Y005344D01*
X004102Y005311D01*
X004102Y004891D01*
X004911Y004891D01*
X004911Y004831D01*
X004971Y004831D01*
X004971Y004891D01*
X004911Y004891D01*
X004911Y005424D01*
X004215Y005424D01*
X004182Y005415D01*
X004115Y005351D02*
X003979Y005351D01*
X003978Y005293D02*
X004102Y005293D01*
X004102Y005234D02*
X003977Y005234D01*
X003977Y005176D02*
X004102Y005176D01*
X004102Y005117D02*
X003976Y005117D01*
X003975Y005059D02*
X004102Y005059D01*
X004102Y005000D02*
X003975Y005000D01*
X003974Y004942D02*
X004102Y004942D01*
X004102Y004831D02*
X004102Y004411D01*
X004111Y004378D01*
X004128Y004348D01*
X004153Y004324D01*
X004182Y004307D01*
X004215Y004298D01*
X004911Y004298D01*
X004911Y004831D01*
X004102Y004831D01*
X004102Y004825D02*
X003972Y004825D01*
X003973Y004883D02*
X004911Y004883D01*
X004911Y004825D02*
X004971Y004825D01*
X004971Y004883D02*
X006075Y004883D01*
X006071Y005527D02*
X004606Y005527D01*
X004911Y005410D02*
X004971Y005410D01*
X004971Y005351D02*
X004911Y005351D01*
X004911Y005293D02*
X004971Y005293D01*
X004971Y005234D02*
X004911Y005234D01*
X004911Y005176D02*
X004971Y005176D01*
X004971Y005117D02*
X004911Y005117D01*
X004911Y005059D02*
X004971Y005059D01*
X004971Y005000D02*
X004911Y005000D01*
X004911Y004942D02*
X004971Y004942D01*
X004971Y004766D02*
X004911Y004766D01*
X004911Y004707D02*
X004971Y004707D01*
X004971Y004649D02*
X004911Y004649D01*
X004911Y004590D02*
X004971Y004590D01*
X004971Y004532D02*
X004911Y004532D01*
X004911Y004473D02*
X004971Y004473D01*
X004971Y004415D02*
X004911Y004415D01*
X004911Y004356D02*
X004971Y004356D01*
X004124Y004356D02*
X003967Y004356D01*
X003967Y004415D02*
X004102Y004415D01*
X004102Y004473D02*
X003968Y004473D01*
X003969Y004532D02*
X004102Y004532D01*
X004102Y004590D02*
X003969Y004590D01*
X003970Y004649D02*
X004102Y004649D01*
X004102Y004707D02*
X003971Y004707D01*
X003972Y004766D02*
X004102Y004766D01*
X004101Y003829D02*
X005951Y003829D01*
X005827Y003771D02*
X004191Y003771D01*
X004280Y003712D02*
X005703Y003712D01*
X005579Y003654D02*
X004369Y003654D01*
X004459Y003595D02*
X005455Y003595D01*
X005341Y003537D02*
X004541Y003537D01*
X004541Y003478D02*
X005341Y003478D01*
X005341Y003420D02*
X004541Y003420D01*
X004541Y003361D02*
X005341Y003361D01*
X005341Y003302D02*
X004541Y003302D01*
X004541Y003244D02*
X005341Y003244D01*
X005341Y003185D02*
X004541Y003185D01*
X004541Y003127D02*
X005341Y003127D01*
X005341Y003068D02*
X004541Y003068D01*
X004541Y003010D02*
X005341Y003010D01*
X005341Y002951D02*
X005275Y002951D01*
X005307Y002893D02*
X005341Y002893D01*
X005341Y002834D02*
X005311Y002834D01*
X005311Y002776D02*
X005341Y002776D01*
X005341Y002717D02*
X005311Y002717D01*
X005311Y002658D02*
X005341Y002658D01*
X005341Y002600D02*
X005311Y002600D01*
X005311Y002541D02*
X005341Y002541D01*
X005341Y002483D02*
X005311Y002483D01*
X005341Y002424D02*
X004971Y002424D01*
X004971Y002483D02*
X004911Y002483D01*
X004911Y002451D02*
X004911Y002991D01*
X004684Y002991D01*
X004651Y002982D01*
X004621Y002965D01*
X004597Y002941D01*
X004580Y002911D01*
X004571Y002878D01*
X004571Y002451D01*
X004911Y002451D01*
X004911Y002424D02*
X004541Y002424D01*
X004541Y002366D02*
X004571Y002366D01*
X004571Y002307D02*
X004541Y002307D01*
X004541Y002249D02*
X004571Y002249D01*
X004571Y002190D02*
X004541Y002190D01*
X004541Y002132D02*
X004571Y002132D01*
X004571Y002073D02*
X004541Y002073D01*
X004541Y002014D02*
X004571Y002014D01*
X004573Y001956D02*
X004541Y001956D01*
X005309Y001956D02*
X005341Y001956D01*
X005341Y002014D02*
X005311Y002014D01*
X005311Y002073D02*
X005341Y002073D01*
X005341Y002132D02*
X005311Y002132D01*
X005311Y002190D02*
X005341Y002190D01*
X005341Y002249D02*
X005311Y002249D01*
X005311Y002307D02*
X005341Y002307D01*
X005341Y002366D02*
X005311Y002366D01*
X004971Y002541D02*
X004911Y002541D01*
X004911Y002600D02*
X004971Y002600D01*
X004971Y002658D02*
X004911Y002658D01*
X004911Y002717D02*
X004971Y002717D01*
X004971Y002776D02*
X004911Y002776D01*
X004911Y002834D02*
X004971Y002834D01*
X004971Y002893D02*
X004911Y002893D01*
X004911Y002951D02*
X004971Y002951D01*
X004607Y002951D02*
X004541Y002951D01*
X004541Y002893D02*
X004575Y002893D01*
X004571Y002834D02*
X004541Y002834D01*
X004541Y002776D02*
X004571Y002776D01*
X004571Y002717D02*
X004541Y002717D01*
X004541Y002658D02*
X004571Y002658D01*
X004571Y002600D02*
X004541Y002600D01*
X004541Y002541D02*
X004571Y002541D01*
X004571Y002483D02*
X004541Y002483D01*
X008391Y005915D02*
X008341Y006041D01*
M02*
